<?xml version="1.0" encoding="UTF-8" standalone="no"?>
<svg width="185px" height="126px" viewBox="0 0 185 126" version="1.1" xmlns="http://www.w3.org/2000/svg" xmlns:xlink="http://www.w3.org/1999/xlink" xmlns:sketch="http://www.bohemiancoding.com/sketch/ns">
    <!-- Generator: Sketch 3.4.4 (17249) - http://www.bohemiancoding.com/sketch -->
    <title>eu</title>
    <desc>Created with Sketch.</desc>
    <defs></defs>
    <g id="Page-1" stroke="none" stroke-width="1" fill="none" fill-rule="evenodd" sketch:type="MSPage">
        <g id="Mobile-Portrait" sketch:type="MSArtboardGroup" transform="translate(-89.000000, -264.000000)" fill="#FFFFFF">
            <g id="eu" sketch:type="MSLayerGroup" transform="translate(89.000000, 264.364409)">
                <path d="M180.541876,121.349451 L4.05858915,121.349451 L4.05858915,3.69205909 L180.541876,3.69205909 L180.541876,121.349451 Z M0.529570586,124.946921 L184.071517,124.946921 L184.071517,0.274430821 L0.529570586,0.274430821 L0.529570586,124.946921 Z" id="Fill-1" sketch:type="MSShapeGroup"></path>
                <path d="M88.5399082,29.3276315 L92.2637042,26.6100819 L95.9881225,29.3276315 L94.5705411,24.9330046 L98.3534548,22.2148327 L93.69062,22.2148327 L92.2637042,17.7666887 L90.8367884,22.219811 L86.1770651,22.2148327 L89.9568674,24.9330046 L88.5399082,29.3276315 Z" id="Fill-2" sketch:type="MSShapeGroup"></path>
                <path d="M69.2682683,34.5052886 L72.9920643,31.7877389 L76.7139934,34.5052886 L75.2989011,30.1106617 L79.0793257,27.3924897 L74.4164909,27.3924897 L72.9895751,22.9393674 L71.5632816,27.3974681 L66.902936,27.3924897 L70.6827383,30.1106617 L69.2682683,34.5052886 Z" id="Fill-3" sketch:type="MSShapeGroup"></path>
                <path d="M58.8910495,37.0722435 L57.4641337,41.5303442 L52.8044104,41.5253659 L56.5842127,44.2429155 L55.1672535,48.6381647 L58.8910495,45.920615 L62.6148455,48.6381647 L61.1978864,44.2429155 L64.9776886,41.5253659 L60.3179653,41.5253659 L58.8910495,37.0722435 Z" id="Fill-4" sketch:type="MSShapeGroup"></path>
                <path d="M53.7182463,65.16811 L57.4395532,67.8856597 L56.0250832,63.4910328 L59.8048855,60.7734831 L55.1451622,60.7734831 L53.7182463,56.3197385 L52.2913305,60.7828175 L47.629118,60.7734831 L51.4114095,63.4910328 L49.9944504,67.8856597 L53.7182463,65.16811 Z" id="Fill-5" sketch:type="MSShapeGroup"></path>
                <path d="M60.3179653,80.0787891 L58.8910495,75.6256667 L57.4641337,80.0837674 L52.8044104,80.0787891 L56.5842127,82.7963387 L55.1672535,87.1915879 L58.8910495,84.4690599 L62.6148455,87.1915879 L61.1978864,82.7963387 L64.9776886,80.0787891 L60.3179653,80.0787891 Z" id="Fill-6" sketch:type="MSShapeGroup"></path>
                <path d="M74.4459253,94.2067491 L73.0190095,89.7586051 L71.5945829,94.2117274 L66.9323704,94.2067491 L70.7121727,96.9242987 L69.2977027,101.319548 L73.0214987,98.601376 L76.7428055,101.319548 L75.3283356,96.9242987 L79.1081378,94.2067491 L74.4459253,94.2067491 Z" id="Fill-7" sketch:type="MSShapeGroup"></path>
                <path d="M93.6932336,99.3260974 L92.2663178,94.872975 L90.8418912,99.3310757 L86.1796787,99.3260974 L89.959481,102.043647 L88.545011,106.438896 L92.268807,103.720724 L95.9901138,106.438896 L94.5731547,102.043647 L98.3554461,99.3260974 L93.6932336,99.3260974 Z" id="Fill-8" sketch:type="MSShapeGroup"></path>
                <path d="M112.940542,94.2067491 L111.516115,89.7586051 L110.08671,94.2117274 L105.429476,94.2067491 L109.206789,96.9242987 L107.792319,101.319548 L111.516115,98.601376 L115.239911,101.319548 L113.820463,96.9242987 L117.602754,94.2067491 L112.940542,94.2067491 Z" id="Fill-9" sketch:type="MSShapeGroup"></path>
                <path d="M127.073356,80.0787891 L125.643951,75.6256667 L124.214546,80.0837674 L119.557312,80.0787891 L123.339603,82.7963387 L121.920155,87.1915879 L125.643951,84.4690599 L129.368369,87.1915879 L127.948299,82.7963387 L131.73059,80.0787891 L127.073356,80.0787891 Z" id="Fill-10" sketch:type="MSShapeGroup"></path>
                <path d="M136.850187,60.7196549 L132.187975,60.7196549 L130.75857,56.2659102 L129.334143,60.7246332 L124.671931,60.7196549 L128.454222,63.4372045 L127.03913,67.8324537 L130.75857,65.1099257 L134.482366,67.8324537 L133.067896,63.4372045 L136.850187,60.7196549 Z" id="Fill-11" sketch:type="MSShapeGroup"></path>
                <path d="M121.92003,48.5797937 L125.643826,45.862244 L129.368245,48.5797937 L127.948796,44.1851668 L131.731088,41.4719732 L127.073231,41.4719732 L125.643826,37.0188509 L124.215044,41.4769515 L119.557187,41.4719732 L123.339479,44.1851668 L121.92003,48.5797937 Z" id="Fill-12" sketch:type="MSShapeGroup"></path>
                <path d="M111.56957,22.9442835 L110.145144,27.4023842 L105.482931,27.3924275 L109.260244,30.1149555 L107.845774,34.5102047 L111.574549,31.7876767 L115.293366,34.5102047 L113.878896,30.1149555 L117.661188,27.3924275 L112.993997,27.3924275 L111.56957,22.9442835 Z" id="Fill-13" sketch:type="MSShapeGroup"></path>
            </g>
        </g>
    </g>
</svg>