<svg xmlns="http://www.w3.org/2000/svg" viewBox="0 0 60 60"><title>icon-faces</title><g id="8493fb20-fde5-4b8f-804a-f8c8eb12625d" data-name="Layer 2"><g id="f867d5c6-893f-4a8b-9a68-8f47bd46999c" data-name="Layer 1"><path d="M30,23a8.9983,8.9983,0,1,1,5.267-1.7013" fill="none" stroke="#0000f0" stroke-linecap="round" stroke-linejoin="round" stroke-width="2"/><line x1="27" y1="11.9427" x2="27" y2="13" fill="none" stroke="#0000f0" stroke-linecap="round" stroke-linejoin="round" stroke-width="2"/><line x1="33" y1="11.9427" x2="33" y2="13" fill="none" stroke="#0000f0" stroke-linecap="round" stroke-linejoin="round" stroke-width="2"/><path d="M33,16.7574a4.2426,4.2426,0,0,1-6,0" fill="none" stroke="#0000f0" stroke-linecap="round" stroke-linejoin="round" stroke-width="2"/><path d="M14,39a8.9983,8.9983,0,1,1,5.267-1.7013" fill="none" stroke="#0000f0" stroke-linecap="round" stroke-linejoin="round" stroke-width="2"/><line x1="11" y1="27.9427" x2="11" y2="29" fill="none" stroke="#0000f0" stroke-linecap="round" stroke-linejoin="round" stroke-width="2"/><line x1="17" y1="27.9427" x2="17" y2="29" fill="none" stroke="#0000f0" stroke-linecap="round" stroke-linejoin="round" stroke-width="2"/><path d="M17,32.7574a4.2426,4.2426,0,0,1-6,0" fill="none" stroke="#0000f0" stroke-linecap="round" stroke-linejoin="round" stroke-width="2"/><path d="M30,55a8.9983,8.9983,0,1,1,5.267-1.7013" fill="none" stroke="#0000f0" stroke-linecap="round" stroke-linejoin="round" stroke-width="2"/><line x1="27" y1="43.9427" x2="27" y2="45" fill="none" stroke="#0000f0" stroke-linecap="round" stroke-linejoin="round" stroke-width="2"/><line x1="33" y1="43.9427" x2="33" y2="45" fill="none" stroke="#0000f0" stroke-linecap="round" stroke-linejoin="round" stroke-width="2"/><path d="M33,48.7574a4.2426,4.2426,0,0,1-6,0" fill="none" stroke="#0000f0" stroke-linecap="round" stroke-linejoin="round" stroke-width="2"/><path d="M46,39a8.9983,8.9983,0,1,1,5.267-1.7013" fill="none" stroke="#0000f0" stroke-linecap="round" stroke-linejoin="round" stroke-width="2"/><line x1="43" y1="27.9427" x2="43" y2="29" fill="none" stroke="#0000f0" stroke-linecap="round" stroke-linejoin="round" stroke-width="2"/><line x1="49" y1="27.9427" x2="49" y2="29" fill="none" stroke="#0000f0" stroke-linecap="round" stroke-linejoin="round" stroke-width="2"/><path d="M49,32.7574a4.2426,4.2426,0,0,1-6,0" fill="none" stroke="#0000f0" stroke-linecap="round" stroke-linejoin="round" stroke-width="2"/><path d="M35,58.5616A28.9786,28.9786,0,1,0,30,59" fill="none" stroke="#0000f0" stroke-linecap="round" stroke-linejoin="round" stroke-width="2"/></g></g></svg>