<svg xmlns="http://www.w3.org/2000/svg" viewBox="0 0 60 60"><title>icon-calendar</title><g id="b40adf79-98e7-46ba-b776-59c00ac7ce3d" data-name="Layer 2"><g id="aa4d9bc5-e67e-4bb6-96f9-b22548b8b43d" data-name="Layer 1"><path d="M35,58.5616A28.9786,28.9786,0,1,0,30,59" fill="none" stroke="#0000f0" stroke-linecap="round" stroke-linejoin="round" stroke-width="2"/><polyline points="46 13 46 47 14 47 14 13 42 13" fill="none" stroke="#0000f0" stroke-linecap="round" stroke-linejoin="round" stroke-width="2"/><line x1="21" y1="17" x2="21" y2="18" fill="none" stroke="#0000f0" stroke-linecap="round" stroke-linejoin="round" stroke-width="2"/><line x1="39" y1="17" x2="39" y2="18" fill="none" stroke="#0000f0" stroke-linecap="round" stroke-linejoin="round" stroke-width="2"/><path d="M22,28h8l-5,5h1a4,4,0,0,1,4,4h0a4,4,0,0,1-4,4h0a4,4,0,0,1-4-4h0" fill="none" stroke="#0000f0" stroke-linecap="round" stroke-linejoin="round" stroke-width="2"/><polyline points="34 32 38 28 38 41" fill="none" stroke="#0000f0" stroke-linecap="round" stroke-linejoin="round" stroke-width="2"/><line x1="18" y1="22" x2="46" y2="22" fill="none" stroke="#0000f0" stroke-linecap="round" stroke-linejoin="round" stroke-width="2"/></g></g></svg>