<?xml version="1.0" encoding="UTF-8" standalone="no"?>
<svg width="176px" height="69px" viewBox="0 0 176 69" version="1.1" xmlns="http://www.w3.org/2000/svg" xmlns:xlink="http://www.w3.org/1999/xlink" xmlns:sketch="http://www.bohemiancoding.com/sketch/ns">
    <!-- Generator: Sketch 3.4.4 (17249) - http://www.bohemiancoding.com/sketch -->
    <title>kultuuriministeerium</title>
    <desc>Created with Sketch.</desc>
    <defs></defs>
    <g id="Page-1" stroke="none" stroke-width="1" fill="none" fill-rule="evenodd" sketch:type="MSPage">
        <g id="Mobile-Portrait" sketch:type="MSArtboardGroup" transform="translate(-93.000000, -159.000000)" fill="#FFFFFF">
            <g id="kultuuriministeerium" sketch:type="MSLayerGroup" transform="translate(93.000000, 159.000000)">
                <path d="M46.26,0.63 L45.126,0.63 L45.126,68.661 L46.26,68.661 L46.26,0.63 Z M34.29,53.848 C34.331,53.747 34.354,53.636 34.354,53.52 C34.354,53.047 33.971,52.662 33.498,52.662 L32.632,52.662 C32.573,52.662 32.518,52.648 32.469,52.622 C32.421,52.597 32.377,52.559 32.344,52.511 L31.91,51.87 C31.943,51.918 31.986,51.956 32.035,51.981 C32.083,52.007 32.139,52.022 32.198,52.021 L33.339,52.022 C33.398,52.022 33.454,52.036 33.502,52.062 C33.551,52.087 33.594,52.125 33.627,52.173 L33.103,51.405 C33.07,51.357 33.026,51.32 32.977,51.294 C32.929,51.269 32.873,51.254 32.815,51.254 L31.683,51.255 C31.625,51.255 31.569,51.24 31.521,51.215 C31.472,51.189 31.428,51.152 31.395,51.103 L30.903,50.379 C30.936,50.428 30.98,50.465 31.028,50.49 C31.077,50.516 31.132,50.531 31.191,50.53 L32.327,50.53 C32.386,50.529 32.442,50.544 32.49,50.57 C32.539,50.595 32.582,50.632 32.615,50.681 L32.091,49.913 C32.058,49.865 32.014,49.827 31.965,49.802 C31.917,49.776 31.861,49.762 31.803,49.762 L30.9,49.762 C30.841,49.762 30.786,49.747 30.737,49.721 C30.689,49.696 30.645,49.659 30.612,49.61 L30.005,48.719 C31.232,48.573 32.222,47.908 32.419,46.992 C32.675,45.803 31.493,44.651 29.783,44.4 C29.495,44.358 29.275,44.111 29.275,43.812 C29.275,43.557 29.435,43.34 29.66,43.255 C29.478,43.177 29.274,43.133 29.058,43.133 C28.302,43.133 27.688,43.675 27.688,44.344 C27.688,44.464 27.709,44.581 27.746,44.691 C26.898,45.057 26.126,45.706 25.535,46.407 C26.167,46.239 26.831,46.149 27.516,46.149 C27.513,46.117 27.511,46.085 27.511,46.052 C27.511,45.539 27.926,45.124 28.439,45.124 L28.452,45.124 C28.102,45.278 27.932,45.614 27.932,45.836 C27.932,46.101 28.147,46.315 28.411,46.315 C28.514,46.315 28.61,46.283 28.688,46.228 C28.67,46.167 28.66,46.104 28.66,46.037 C28.66,45.67 28.957,45.373 29.325,45.373 C29.357,45.373 29.39,45.375 29.421,45.38 C29.168,45.498 28.992,45.756 28.992,46.054 C28.992,46.465 29.325,46.798 29.736,46.798 C29.78,46.798 29.822,46.795 29.864,46.787 C29.852,46.744 29.846,46.699 29.846,46.652 C29.846,46.357 30.085,46.118 30.379,46.118 C30.674,46.118 30.913,46.357 30.913,46.652 C30.913,47.293 30.201,47.352 29.682,47.203 C28.204,46.777 26.82,46.586 25.481,46.773 C23.763,47.014 20.949,48.176 17.962,48.079 C17.294,48.058 16.565,47.947 15.831,47.746 C15.921,47.844 15.979,47.913 16.017,47.971 C16.308,48.424 16.408,48.899 16.151,49.493 C16.158,48.827 15.608,48.279 15.147,47.943 C14.961,47.808 14.886,47.679 14.917,47.506 L15.053,46.738 C15.043,46.795 15.048,46.852 15.065,46.903 C15.082,46.956 15.111,47.005 15.153,47.046 L15.44,47.327 C15.549,46.549 15.373,45.825 14.91,45.154 C15.115,44.618 15.143,44.027 15.006,43.472 C14.952,43.892 14.746,44.072 14.551,44.194 C14.187,44.421 14.127,44.805 14.315,45.062 C14.009,44.905 13.585,44.336 13.83,44.004 C14.094,43.645 14.817,43.814 14.906,43.198 C14.437,43.049 13.954,43.154 13.807,43.194 C13.529,42.875 13.16,42.717 12.701,42.72 C12.338,42.39 11.872,42.254 11.302,42.311 C10.733,42.254 10.267,42.39 9.904,42.72 C9.445,42.717 9.076,42.875 8.798,43.194 C8.65,43.154 8.168,43.049 7.698,43.198 C7.787,43.814 8.51,43.645 8.774,44.004 C9.019,44.336 8.596,44.905 8.289,45.062 C8.478,44.805 8.417,44.421 8.053,44.194 C7.859,44.072 7.652,43.892 7.598,43.472 C7.461,44.027 7.49,44.618 7.694,45.154 C7.231,45.825 7.055,46.549 7.164,47.327 L7.452,47.046 C7.494,47.005 7.523,46.956 7.54,46.903 C7.557,46.852 7.561,46.795 7.551,46.738 L7.687,47.506 C7.718,47.679 7.644,47.808 7.458,47.943 C6.996,48.279 6.446,48.827 6.453,49.493 C6.197,48.899 6.301,48.404 6.588,47.971 C5.712,47.498 5.045,46.721 4.922,46.579 C4.657,46.271 4.692,45.878 4.932,45.534 C5.395,44.871 5.505,44.166 4.924,43.683 C4.928,43.648 4.93,43.612 4.93,43.576 C4.93,43.137 4.618,42.771 4.203,42.688 C4.28,42.808 4.325,42.951 4.325,43.104 C4.325,43.279 4.267,43.44 4.168,43.569 C4.25,43.677 4.299,43.812 4.299,43.958 C4.299,44.154 4.211,44.329 4.072,44.446 C4.086,44.379 4.093,44.308 4.093,44.237 C4.093,43.785 3.813,43.407 3.434,43.303 C3.373,42.975 3.085,42.726 2.739,42.726 C2.538,42.726 2.358,42.809 2.229,42.943 C2.497,42.963 2.713,43.174 2.742,43.44 C2.614,43.536 2.511,43.668 2.444,43.824 L2.461,43.824 C2.924,43.824 3.299,44.199 3.299,44.662 C3.299,44.714 3.294,44.766 3.285,44.816 C3.25,44.625 3.164,44.45 3.025,44.314 C2.765,44.061 2.387,44.008 2.041,44.14 C1.911,43.977 1.711,43.872 1.487,43.872 C1.233,43.872 1.011,44.005 0.886,44.205 C1.142,44.216 1.367,44.345 1.508,44.54 C1.144,45.006 1.14,45.65 1.512,46.013 C1.764,46.259 2.125,46.316 2.462,46.2 C2.484,46.192 2.508,46.188 2.533,46.188 C2.657,46.188 2.757,46.288 2.757,46.412 C2.757,46.535 2.657,46.635 2.533,46.635 C2.479,46.635 2.429,46.616 2.391,46.584 C2.306,46.513 2.196,46.471 2.077,46.471 C1.807,46.471 1.587,46.69 1.587,46.961 C1.587,46.981 1.588,47.002 1.591,47.021 C1.545,47.036 1.496,47.044 1.445,47.044 C1.313,47.044 1.193,46.99 1.105,46.904 C1.091,46.957 1.084,47.013 1.084,47.071 C1.084,47.416 1.35,47.699 1.689,47.725 C1.841,48.103 2.212,48.369 2.644,48.369 C2.866,48.369 3.071,48.299 3.239,48.181 C3.313,48.129 3.401,48.099 3.497,48.099 C3.746,48.099 3.948,48.301 3.948,48.55 C3.948,48.765 3.798,48.944 3.597,48.989 L3.246,49.067 C3.189,49.08 3.131,49.077 3.078,49.062 C3.025,49.048 2.975,49.021 2.933,48.98 L3.736,49.743 C3.779,49.783 3.829,49.811 3.882,49.825 C3.935,49.84 3.992,49.843 4.05,49.83 L4.707,49.684 C4.764,49.671 4.822,49.674 4.874,49.689 C4.927,49.703 4.978,49.73 5.02,49.771 L5.571,50.295 C5.528,50.254 5.478,50.227 5.425,50.213 C5.372,50.198 5.315,50.195 5.258,50.208 L4.601,50.353 C4.544,50.366 4.486,50.363 4.434,50.348 C4.381,50.334 4.33,50.307 4.288,50.267 L5.024,50.964 C5.066,51.005 5.117,51.032 5.169,51.046 C5.222,51.061 5.28,51.064 5.337,51.051 L5.995,50.907 C6.053,50.894 6.11,50.897 6.163,50.912 C6.216,50.926 6.266,50.954 6.309,50.994 L6.86,51.518 C6.817,51.478 6.767,51.45 6.714,51.436 C6.661,51.421 6.604,51.418 6.546,51.431 L5.89,51.576 C5.832,51.589 5.775,51.586 5.722,51.571 C5.669,51.557 5.619,51.53 5.576,51.489 L6.312,52.187 C6.355,52.228 6.405,52.255 6.458,52.269 C6.511,52.284 6.568,52.287 6.626,52.274 L7.421,52.1 C6.649,52.536 5.827,53.03 4.956,53.581 C4.441,53.906 3.878,53.967 3.231,53.719 C2.884,53.586 2.506,53.564 2.268,53.605 C1.958,53.658 1.695,53.846 1.542,54.107 C1.662,54.058 1.793,54.032 1.931,54.032 C2.22,54.032 2.481,54.149 2.671,54.337 C2.37,54.211 1.996,54.198 1.633,54.33 C0.983,54.567 0.604,55.18 0.752,55.728 C0.51,55.822 0.339,56.056 0.339,56.331 C0.339,56.512 0.413,56.675 0.533,56.793 C0.597,56.505 0.849,56.288 1.154,56.277 C1.281,56.361 1.429,56.42 1.588,56.452 C1.636,56.369 1.697,56.294 1.767,56.231 C1.76,56.179 1.756,56.126 1.756,56.072 C1.756,55.479 2.236,54.998 2.829,54.998 C2.878,54.998 2.927,55.001 2.974,55.008 C2.503,55.121 2.152,55.545 2.152,56.052 C2.152,56.116 2.158,56.179 2.169,56.24 C1.915,56.337 1.736,56.583 1.736,56.871 C1.736,57.036 1.795,57.187 1.894,57.305 C2.076,56.949 2.431,56.697 2.848,56.657 C3.005,56.703 3.171,56.728 3.343,56.728 C3.45,56.728 3.555,56.718 3.657,56.7 C3.565,56.565 3.511,56.403 3.511,56.228 C3.511,55.767 3.885,55.393 4.346,55.393 C4.386,55.393 4.425,55.396 4.464,55.402 C4.023,55.589 3.753,55.972 3.846,56.32 C3.912,56.568 4.145,56.739 4.446,56.795 C4.442,56.981 4.391,57.155 4.304,57.306 C4.691,57.278 5.022,57.044 5.187,56.714 C5.643,56.531 5.924,56.14 5.83,55.785 C5.796,55.658 5.718,55.551 5.61,55.469 C5.609,55.457 5.608,55.445 5.608,55.433 C5.608,55.189 5.807,54.99 6.051,54.99 C6.296,54.99 6.494,55.189 6.494,55.433 C6.494,55.549 6.45,55.654 6.377,55.733 L7.304,55.733 C7.362,55.733 7.418,55.718 7.466,55.692 C7.515,55.667 7.558,55.629 7.591,55.58 L8.186,54.698 C8.208,54.665 8.238,54.64 8.271,54.622 C8.304,54.604 8.342,54.594 8.382,54.594 L9.11,54.594 C9.07,54.594 9.032,54.604 8.999,54.622 C8.966,54.64 8.936,54.665 8.914,54.698 L8.317,55.58 C8.284,55.629 8.241,55.667 8.192,55.692 C8.144,55.718 8.089,55.733 8.03,55.733 L9.138,55.733 C9.197,55.733 9.252,55.718 9.3,55.692 C9.349,55.667 9.393,55.629 9.425,55.58 L10.093,54.595 C9.632,54.343 9.443,53.902 9.443,53.296 C9.443,52.919 9.655,52.489 9.687,52.212 L9.7,52.102 C9.707,52.043 9.699,51.986 9.679,51.935 C9.663,51.894 9.631,51.834 9.596,51.793 L10.166,52.377 C10.211,52.415 10.243,52.463 10.262,52.514 C10.283,52.565 10.291,52.622 10.284,52.68 L10.267,52.814 C10.24,53.046 9.948,53.546 10.49,54.004 C10.517,54.027 10.584,54.074 10.648,54.115 L11.033,54.357 L11.033,52.936 L11.572,52.936 L11.572,54.517 C11.573,54.576 11.59,54.631 11.617,54.678 C11.644,54.726 11.682,54.769 11.732,54.8 L12.259,55.135 C12.309,55.166 12.364,55.184 12.418,55.188 C12.473,55.192 12.53,55.184 12.583,55.16 L13.554,54.739 C13.5,54.762 13.443,54.771 13.389,54.766 C13.334,54.762 13.279,54.745 13.23,54.713 L12.115,54.004 C12.657,53.546 12.364,53.046 12.337,52.814 L12.321,52.68 C12.314,52.622 12.322,52.565 12.342,52.514 C12.362,52.463 12.394,52.415 12.438,52.377 L13.008,51.793 C12.973,51.834 12.942,51.894 12.926,51.935 C12.906,51.986 12.898,52.043 12.905,52.102 L12.917,52.212 C12.963,52.607 13.363,53.323 13.03,53.722 L14.049,54.369 C14.099,54.4 14.154,54.417 14.208,54.421 C14.263,54.426 14.32,54.418 14.374,54.394 L15.389,53.953 C15.335,53.976 15.279,53.984 15.225,53.98 C15.17,53.976 15.115,53.958 15.065,53.927 L13.963,53.226 C14.203,52.734 14.001,51.953 13.768,51.501 L13.733,51.434 C13.707,51.381 13.695,51.325 13.697,51.27 C13.697,51.215 13.711,51.16 13.74,51.108 L14.118,50.426 C14.09,50.477 14.076,50.533 14.076,50.587 C14.074,50.642 14.086,50.698 14.112,50.75 L14.251,51.021 C14.324,51.154 14.365,51.235 14.429,51.392 C15.049,50.833 15.187,50.294 14.792,49.834 L14.674,49.696 C14.636,49.652 14.611,49.6 14.599,49.546 C14.586,49.493 14.586,49.436 14.602,49.379 L14.804,48.626 C14.789,48.682 14.789,48.739 14.801,48.792 C14.813,48.845 14.838,48.897 14.877,48.941 L15.265,49.394 C16.019,50.246 15.563,51.344 14.663,52.181 C14.713,52.342 14.756,52.643 14.72,52.806 L15.915,53.564 C15.965,53.596 16.02,53.613 16.075,53.617 C16.129,53.622 16.186,53.613 16.24,53.59 L17.104,53.214 C17.055,53.235 17,53.247 16.944,53.247 C16.721,53.247 16.541,53.067 16.541,52.845 C16.541,52.665 16.658,52.51 16.822,52.461 C20.121,51.457 23.158,48.867 25.152,48.873 C26.121,48.876 26.907,49.463 26.907,50.19 C26.907,50.307 26.886,50.421 26.848,50.53 C26.423,51.724 27.042,52.864 28.677,53.303 C28.937,53.374 29.129,53.612 29.129,53.894 C29.129,53.949 29.121,54.003 29.108,54.053 C29.145,54.057 29.183,54.058 29.222,54.058 C29.672,54.058 30.07,53.834 30.311,53.492 C30.592,53.49 30.898,53.473 31.212,53.44 C31.25,53.516 31.28,53.603 31.298,53.697 C31.365,54.04 31.246,54.351 31.035,54.419 C30.66,54.541 30.2,54.395 29.845,54.398 C29.173,54.405 28.63,54.951 28.63,55.624 C28.63,55.677 28.633,55.729 28.64,55.78 C28.429,55.912 28.289,56.146 28.289,56.412 C28.289,56.545 28.324,56.67 28.385,56.778 C28.592,56.536 28.861,56.35 29.168,56.242 C29.194,55.652 29.68,55.182 30.276,55.182 C30.367,55.182 30.457,55.193 30.541,55.214 C29.937,55.29 29.469,55.806 29.469,56.431 C29.469,56.476 29.472,56.521 29.477,56.566 C29.402,56.656 29.357,56.773 29.357,56.899 C29.357,57.06 29.429,57.204 29.542,57.3 C29.656,57.051 29.931,56.816 30.287,56.696 C30.526,56.616 30.761,56.6 30.957,56.64 C30.926,56.546 30.91,56.446 30.91,56.342 C30.91,55.809 31.342,55.377 31.875,55.377 C31.924,55.377 31.973,55.381 32.02,55.388 C31.648,55.438 31.362,55.757 31.362,56.142 C31.362,56.398 31.488,56.624 31.681,56.762 C31.681,56.776 31.68,56.79 31.68,56.804 C31.68,57.013 31.776,57.2 31.927,57.323 C31.994,56.973 32.301,56.709 32.671,56.709 C32.987,56.709 33.248,56.669 33.443,56.605 C33.773,56.497 34.014,56.192 34.014,55.827 C34.014,55.574 33.899,55.348 33.718,55.199 C33.807,54.789 33.791,54.116 33.652,53.556 C33.68,53.552 33.709,53.55 33.739,53.55 C33.969,53.55 34.172,53.668 34.29,53.848 L34.29,53.848 Z M8.354,51.021 L8.492,50.75 C8.519,50.698 8.53,50.642 8.529,50.587 C8.528,50.533 8.514,50.477 8.486,50.426 L8.865,51.108 C8.893,51.16 8.907,51.215 8.908,51.27 C8.91,51.325 8.898,51.381 8.871,51.434 L8.837,51.501 C8.604,51.953 8.387,52.8 8.628,53.291 C8.066,53.082 7.881,52.59 7.941,52.181 C6.884,51.178 6.617,50.162 7.372,49.31 L7.76,48.857 C7.799,48.813 7.824,48.761 7.835,48.708 C7.848,48.655 7.848,48.598 7.833,48.542 L8.035,49.295 C8.05,49.352 8.051,49.409 8.038,49.462 C8.026,49.516 8.001,49.568 7.963,49.612 L7.845,49.75 C7.45,50.21 7.556,50.833 8.175,51.392 C8.239,51.235 8.281,51.154 8.354,51.021 L8.354,51.021 Z M9.762,45.579 L9.513,45.579 C9.243,45.579 9.004,45.217 9.004,44.891 C9.152,45.057 9.308,45.128 9.52,45.128 L10.662,45.128 C10.764,45.128 10.866,45.207 10.91,45.338 C10.942,45.435 10.924,45.579 10.906,45.719 C10.851,45.615 10.782,45.579 10.693,45.579 L10.433,45.579 C10.495,45.654 10.532,45.75 10.532,45.856 C10.532,46.096 10.337,46.291 10.097,46.291 C9.857,46.291 9.662,46.096 9.662,45.856 C9.662,45.75 9.699,45.654 9.762,45.579 L9.762,45.579 Z M10.049,43.517 L10.523,44.12 C10.629,44.248 10.662,44.333 10.787,44.351 L10.389,44.351 C10.19,44.351 10.053,44.27 9.937,44.136 L9.482,43.542 C9.407,43.448 9.348,43.382 9.25,43.338 L9.7,43.338 C9.835,43.338 9.955,43.397 10.049,43.517 L10.049,43.517 Z M11.368,43.37 L11.95,44.188 C12.042,44.322 12.129,44.397 12.254,44.448 L11.721,44.448 C11.516,44.448 11.393,44.354 11.303,44.206 L10.845,43.504 C10.67,43.241 10.601,43.175 10.4,43.104 L10.895,43.104 C11.09,43.104 11.272,43.231 11.368,43.37 L11.368,43.37 Z M13.449,44.351 L13.051,44.351 C12.852,44.351 12.715,44.27 12.599,44.136 L12.144,43.542 C12.069,43.448 12.01,43.382 11.912,43.338 L12.362,43.338 C12.497,43.338 12.617,43.397 12.711,43.517 L13.185,44.12 C13.291,44.248 13.324,44.333 13.449,44.351 L13.449,44.351 Z M13.6,44.891 C13.6,45.217 13.362,45.579 13.091,45.579 L12.843,45.579 C12.905,45.654 12.943,45.75 12.943,45.856 C12.943,46.096 12.748,46.291 12.508,46.291 C12.267,46.291 12.072,46.096 12.072,45.856 C12.072,45.75 12.11,45.654 12.172,45.579 L11.912,45.579 C11.823,45.579 11.754,45.615 11.699,45.719 C11.681,45.579 11.663,45.435 11.695,45.338 C11.739,45.207 11.841,45.128 11.943,45.128 L13.085,45.128 C13.296,45.128 13.453,45.057 13.6,44.891 L13.6,44.891 Z M13.249,47.362 C13.17,47.384 13.127,47.43 13.118,47.513 C13.071,47.959 12.89,48.139 12.601,48.24 C12.597,48.69 12.535,49.03 12.413,49.452 C12.756,50.169 12.493,50.67 12.215,50.777 C11.95,50.88 11.608,50.742 11.305,50.742 C11.002,50.742 10.655,50.88 10.39,50.777 C10.111,50.67 9.849,50.169 10.191,49.452 C10.07,49.03 10.007,48.69 10.004,48.24 C9.715,48.139 9.533,47.959 9.486,47.513 C9.477,47.43 9.434,47.384 9.356,47.362 C8.216,47.05 8.108,45.634 8.685,45.233 C8.634,45.867 8.579,46.762 9.875,46.881 C9.854,47.625 10.176,47.824 10.507,47.824 C10.778,47.824 10.933,47.737 11.001,47.701 C11.242,47.573 11.076,47.378 11.014,47.32 C10.848,47.165 10.764,46.945 10.804,46.726 C10.811,46.686 10.826,46.666 10.863,46.666 L11.302,46.666 L11.741,46.666 C11.778,46.666 11.794,46.686 11.801,46.726 C11.84,46.945 11.756,47.165 11.591,47.32 C11.529,47.378 11.363,47.573 11.604,47.701 C11.671,47.737 11.827,47.824 12.098,47.824 C12.429,47.824 12.751,47.625 12.73,46.881 C14.026,46.762 13.971,45.867 13.92,45.233 C14.497,45.634 14.388,47.05 13.249,47.362 L13.249,47.362 Z M12.101,50.092 C12.135,49.713 11.704,49.578 11.302,49.578 C10.9,49.578 10.47,49.713 10.503,50.092 C10.544,50.554 10.976,50.334 11.302,50.336 C11.628,50.334 12.06,50.554 12.101,50.092 L12.101,50.092 Z M11.968,49.193 C12.03,48.859 12.056,48.535 12.044,48.223 L11.745,48.573 C11.686,48.433 11.647,48.348 11.607,48.279 C11.574,48.222 11.546,48.183 11.507,48.176 C11.487,48.186 11.457,48.202 11.424,48.21 C11.386,48.219 11.334,48.216 11.302,48.216 C11.271,48.216 11.219,48.219 11.18,48.21 C11.148,48.202 11.118,48.186 11.098,48.176 C11.058,48.183 11.031,48.222 10.998,48.279 C10.958,48.348 10.919,48.433 10.86,48.573 L10.56,48.223 C10.549,48.535 10.574,48.859 10.637,49.193 C10.858,49.144 11.086,49.127 11.302,49.127 C11.518,49.127 11.746,49.144 11.968,49.193 L11.968,49.193 Z M17.408,39.862 C17.456,39.862 17.503,39.865 17.549,39.87 C17.081,40.005 16.703,40.354 16.528,40.804 C16.237,40.9 16.027,41.175 16.027,41.498 C16.027,41.649 16.073,41.789 16.151,41.905 C16.404,41.623 16.736,41.412 17.113,41.31 C17.221,40.768 17.672,40.35 18.23,40.291 C17.743,40.495 17.401,40.977 17.401,41.538 C17.401,41.737 17.444,41.925 17.521,42.095 C17.607,41.786 17.89,41.559 18.226,41.559 C18.311,41.559 18.392,41.573 18.467,41.6 C18.571,41.638 18.684,41.658 18.801,41.658 C19.342,41.658 19.78,41.219 19.78,40.677 C19.78,40.569 19.763,40.465 19.731,40.367 C19.988,40.442 20.177,40.68 20.177,40.962 C20.177,41.091 20.137,41.21 20.07,41.31 C20.142,41.323 20.216,41.329 20.292,41.329 C20.929,41.329 21.455,40.85 21.528,40.233 C21.848,40.059 22.129,39.825 22.371,39.533 L22.541,40.362 C22.553,40.42 22.55,40.477 22.534,40.53 C22.519,40.582 22.491,40.633 22.45,40.674 L23.153,39.952 C23.194,39.91 23.222,39.86 23.236,39.807 C23.252,39.754 23.255,39.697 23.243,39.64 L23.036,38.628 C23.024,38.571 23.027,38.513 23.043,38.461 C23.058,38.408 23.086,38.358 23.127,38.316 L23.68,37.752 C23.639,37.794 23.611,37.844 23.596,37.897 C23.581,37.95 23.578,38.007 23.59,38.065 L23.797,39.078 C23.809,39.135 23.806,39.192 23.791,39.245 C23.776,39.297 23.749,39.346 23.709,39.388 L24.336,38.736 C24.376,38.694 24.404,38.644 24.419,38.592 C24.435,38.539 24.438,38.481 24.426,38.424 L24.219,37.414 C24.207,37.357 24.21,37.299 24.226,37.247 C24.241,37.194 24.269,37.144 24.31,37.102 L24.863,36.538 C24.822,36.58 24.794,36.63 24.779,36.683 C24.764,36.736 24.761,36.793 24.773,36.85 L24.981,37.863 C24.993,37.92 24.989,37.978 24.974,38.03 C24.959,38.082 24.932,38.131 24.892,38.173 L25.519,37.522 C25.56,37.48 25.587,37.43 25.602,37.377 C25.618,37.324 25.621,37.267 25.609,37.209 L25.508,36.715 C25.402,36.156 25.979,35.513 26.437,35.448 C26.492,35.342 26.522,35.227 26.522,35.108 C26.522,34.541 25.847,34.081 25.013,34.081 C24.606,34.081 24.236,34.191 23.964,34.37 C24.073,34.693 24.096,35.021 23.027,35.173 C22.179,35.293 21.433,35.458 20.866,35.939 C19.992,36.68 20.063,37.671 19.566,38.046 C19.787,38.1 20.068,38.1 20.369,38.035 C20.559,37.994 20.735,37.931 20.89,37.854 C20.797,38.032 20.584,38.201 20.304,38.321 C20.212,38.671 19.901,39.005 19.481,39.161 C19.216,39.259 18.953,39.269 18.735,39.206 L17.712,38.91 C17.586,38.874 17.455,38.855 17.318,38.855 C16.564,38.855 15.942,39.436 15.85,40.187 C15.494,40.237 15.221,40.543 15.221,40.912 C15.221,41.048 15.258,41.174 15.322,41.283 C15.567,41.034 15.878,40.849 16.226,40.755 C16.372,40.24 16.846,39.862 17.408,39.862 L17.408,39.862 Z M17.481,45.632 C17.463,45.542 17.465,45.451 17.484,45.359 C17.522,45.183 17.678,45.051 17.866,45.051 C18.082,45.051 18.256,45.226 18.256,45.442 C18.256,45.545 18.216,45.639 18.151,45.709 C18.224,45.716 18.299,45.72 18.377,45.72 C18.578,45.72 18.769,45.695 18.937,45.65 C19.212,45.576 19.414,45.325 19.414,45.027 C19.414,44.671 19.125,44.383 18.769,44.383 C18.75,44.383 18.73,44.383 18.711,44.385 C18.801,44.347 18.9,44.326 19.004,44.326 C19.417,44.326 19.753,44.661 19.753,45.075 C19.753,45.096 19.752,45.118 19.75,45.138 C20.866,45.114 22.124,44.096 22.399,43.708 C22.049,43.788 21.67,43.832 21.274,43.832 C20.825,43.832 20.396,43.777 20.008,43.674 C19.459,43.529 18.919,43.448 18.504,43.448 C17.135,43.448 16.025,44.341 16.025,45.443 C16.025,46.353 16.777,47.148 17.819,47.361 C20.19,47.845 22.979,46.437 25.335,45.949 C25.924,45.373 26.605,44.892 27.354,44.528 C27.332,44.442 27.32,44.352 27.32,44.26 L27.32,44.254 C24.194,44.768 21.381,46.372 18.841,46.359 C18.129,46.356 17.571,46.082 17.481,45.632 L17.481,45.632 Z M34.29,38.683 C34.331,38.582 34.354,38.471 34.354,38.355 C34.354,37.882 33.971,37.497 33.498,37.497 L32.632,37.497 C32.573,37.498 32.518,37.483 32.469,37.457 C32.421,37.432 32.377,37.394 32.344,37.346 L31.91,36.705 C31.943,36.753 31.986,36.791 32.035,36.816 C32.083,36.842 32.139,36.857 32.198,36.856 L33.339,36.857 C33.398,36.857 33.454,36.871 33.502,36.897 C33.551,36.922 33.594,36.96 33.627,37.008 L33.103,36.241 C33.07,36.192 33.026,36.155 32.977,36.13 C32.929,36.104 32.873,36.089 32.815,36.089 L31.683,36.09 C31.625,36.09 31.569,36.076 31.521,36.05 C31.472,36.025 31.428,35.987 31.395,35.939 L30.903,35.214 C30.936,35.263 30.98,35.3 31.028,35.325 C31.077,35.351 31.132,35.366 31.191,35.366 L32.327,35.365 C32.386,35.365 32.442,35.379 32.49,35.405 C32.539,35.43 32.582,35.467 32.615,35.516 L32.091,34.749 C32.058,34.7 32.014,34.663 31.965,34.637 C31.917,34.611 31.861,34.597 31.803,34.597 L30.9,34.597 C30.841,34.597 30.786,34.582 30.737,34.557 C30.689,34.531 30.645,34.494 30.612,34.445 L30.005,33.554 C31.232,33.408 32.222,32.743 32.419,31.827 C32.675,30.639 31.493,29.486 29.783,29.235 C29.495,29.193 29.275,28.946 29.275,28.647 C29.275,28.393 29.435,28.175 29.66,28.091 C29.478,28.012 29.274,27.968 29.058,27.968 C28.302,27.968 27.688,28.51 27.688,29.179 C27.688,29.299 27.709,29.416 27.746,29.526 C26.898,29.892 26.126,30.541 25.535,31.242 C26.167,31.074 26.831,30.984 27.516,30.984 C27.513,30.952 27.511,30.92 27.511,30.887 C27.511,30.374 27.926,29.959 28.439,29.959 L28.452,29.959 C28.102,30.113 27.932,30.449 27.932,30.671 C27.932,30.936 28.147,31.151 28.411,31.151 C28.514,31.151 28.61,31.118 28.688,31.063 C28.67,31.003 28.66,30.939 28.66,30.872 C28.66,30.505 28.957,30.208 29.325,30.208 C29.357,30.208 29.39,30.21 29.421,30.215 C29.168,30.333 28.992,30.591 28.992,30.889 C28.992,31.3 29.325,31.633 29.736,31.633 C29.78,31.633 29.822,31.63 29.864,31.623 C29.852,31.579 29.846,31.534 29.846,31.487 C29.846,31.192 30.085,30.953 30.379,30.953 C30.674,30.953 30.913,31.192 30.913,31.487 C30.913,32.128 30.201,32.187 29.682,32.038 C28.204,31.612 26.82,31.421 25.481,31.608 C23.763,31.85 20.949,33.011 17.962,32.914 C17.294,32.893 16.565,32.782 15.831,32.581 C15.921,32.68 15.979,32.748 16.017,32.806 C16.308,33.259 16.408,33.734 16.151,34.328 C16.158,33.662 15.608,33.114 15.147,32.778 C14.961,32.643 14.886,32.514 14.917,32.341 L15.053,31.573 C15.043,31.63 15.048,31.687 15.065,31.738 C15.082,31.791 15.111,31.84 15.153,31.881 L15.44,32.162 C15.549,31.384 15.373,30.66 14.91,29.989 C15.115,29.453 15.143,28.862 15.006,28.307 C14.952,28.727 14.746,28.907 14.551,29.029 C14.187,29.256 14.127,29.64 14.315,29.897 C14.009,29.741 13.585,29.171 13.83,28.839 C14.094,28.48 14.817,28.649 14.906,28.033 C14.437,27.884 13.954,27.989 13.807,28.029 C13.529,27.71 13.16,27.552 12.701,27.555 C12.338,27.226 11.872,27.089 11.302,27.146 C10.733,27.089 10.267,27.226 9.904,27.555 C9.445,27.552 9.076,27.71 8.798,28.029 C8.65,27.989 8.168,27.884 7.698,28.033 C7.787,28.649 8.51,28.48 8.774,28.839 C9.019,29.171 8.596,29.741 8.289,29.897 C8.478,29.64 8.417,29.256 8.053,29.029 C7.859,28.907 7.652,28.727 7.598,28.307 C7.461,28.862 7.49,29.453 7.694,29.989 C7.231,30.66 7.055,31.384 7.164,32.162 L7.452,31.881 C7.494,31.84 7.523,31.791 7.54,31.738 C7.557,31.687 7.561,31.63 7.551,31.573 L7.687,32.341 C7.718,32.514 7.644,32.643 7.458,32.778 C6.996,33.114 6.446,33.662 6.453,34.328 C6.197,33.734 6.301,33.239 6.588,32.806 C5.712,32.333 5.045,31.556 4.922,31.414 C4.657,31.106 4.692,30.713 4.932,30.369 C5.395,29.707 5.505,29.001 4.924,28.518 C4.928,28.483 4.93,28.447 4.93,28.411 C4.93,27.972 4.618,27.606 4.203,27.523 C4.28,27.643 4.325,27.786 4.325,27.939 C4.325,28.114 4.267,28.275 4.168,28.405 C4.25,28.512 4.299,28.647 4.299,28.793 C4.299,28.989 4.211,29.164 4.072,29.281 C4.086,29.214 4.093,29.144 4.093,29.072 C4.093,28.62 3.813,28.242 3.434,28.138 C3.373,27.81 3.085,27.561 2.739,27.561 C2.538,27.561 2.358,27.644 2.229,27.778 C2.497,27.798 2.713,28.009 2.742,28.275 C2.614,28.371 2.511,28.503 2.444,28.659 L2.461,28.659 C2.924,28.659 3.299,29.034 3.299,29.497 C3.299,29.549 3.294,29.601 3.285,29.651 C3.25,29.461 3.164,29.285 3.025,29.15 C2.765,28.896 2.387,28.843 2.041,28.975 C1.911,28.812 1.711,28.707 1.487,28.707 C1.233,28.707 1.011,28.84 0.886,29.04 C1.142,29.051 1.367,29.18 1.508,29.375 C1.144,29.841 1.14,30.485 1.512,30.848 C1.764,31.094 2.125,31.151 2.462,31.035 C2.484,31.028 2.508,31.024 2.533,31.024 C2.657,31.024 2.757,31.124 2.757,31.247 C2.757,31.37 2.657,31.47 2.533,31.47 C2.479,31.47 2.429,31.451 2.391,31.419 C2.306,31.348 2.196,31.306 2.077,31.306 C1.807,31.306 1.587,31.525 1.587,31.796 C1.587,31.817 1.588,31.837 1.591,31.856 C1.545,31.871 1.496,31.879 1.445,31.879 C1.313,31.879 1.193,31.825 1.105,31.739 C1.091,31.792 1.084,31.848 1.084,31.906 C1.084,32.251 1.35,32.534 1.689,32.56 C1.841,32.938 2.212,33.204 2.644,33.204 C2.866,33.204 3.071,33.134 3.239,33.016 C3.313,32.965 3.401,32.934 3.497,32.934 C3.746,32.934 3.948,33.136 3.948,33.385 C3.948,33.6 3.798,33.779 3.597,33.825 L3.246,33.902 C3.189,33.915 3.131,33.912 3.078,33.897 C3.025,33.883 2.975,33.856 2.933,33.816 L3.736,34.578 C3.779,34.618 3.829,34.646 3.882,34.66 C3.935,34.675 3.992,34.678 4.05,34.665 L4.707,34.519 C4.764,34.506 4.822,34.509 4.874,34.524 C4.927,34.538 4.978,34.566 5.02,34.606 L5.571,35.13 C5.528,35.09 5.478,35.062 5.425,35.048 C5.372,35.033 5.315,35.03 5.258,35.043 L4.601,35.188 C4.544,35.201 4.486,35.198 4.434,35.183 C4.381,35.169 4.33,35.142 4.288,35.102 L5.024,35.799 C5.066,35.84 5.117,35.867 5.169,35.882 C5.222,35.897 5.28,35.899 5.337,35.886 L5.995,35.742 C6.053,35.729 6.11,35.732 6.163,35.747 C6.216,35.761 6.266,35.789 6.309,35.829 L6.86,36.353 C6.817,36.313 6.767,36.285 6.714,36.271 C6.661,36.256 6.604,36.254 6.546,36.266 L5.89,36.411 C5.832,36.424 5.775,36.421 5.722,36.406 C5.669,36.392 5.619,36.365 5.576,36.325 L6.312,37.022 C6.355,37.063 6.405,37.09 6.458,37.104 C6.511,37.119 6.568,37.122 6.626,37.109 L7.421,36.935 C6.649,37.371 5.827,37.865 4.956,38.416 C4.441,38.741 3.878,38.802 3.231,38.554 C2.884,38.421 2.506,38.4 2.268,38.44 C1.958,38.493 1.695,38.681 1.542,38.942 C1.662,38.894 1.793,38.867 1.931,38.867 C2.22,38.867 2.481,38.984 2.671,39.172 C2.37,39.046 1.996,39.033 1.633,39.166 C0.983,39.402 0.604,40.015 0.752,40.564 C0.51,40.657 0.339,40.892 0.339,41.166 C0.339,41.347 0.413,41.511 0.533,41.628 C0.597,41.34 0.849,41.123 1.154,41.112 C1.281,41.196 1.429,41.255 1.588,41.287 C1.636,41.204 1.697,41.129 1.767,41.066 C1.76,41.014 1.756,40.961 1.756,40.907 C1.756,40.314 2.236,39.833 2.829,39.833 C2.878,39.833 2.927,39.836 2.974,39.843 C2.503,39.956 2.152,40.38 2.152,40.887 C2.152,40.951 2.158,41.014 2.169,41.075 C1.915,41.173 1.736,41.418 1.736,41.706 C1.736,41.871 1.795,42.022 1.894,42.14 C2.076,41.784 2.431,41.532 2.848,41.492 C3.005,41.538 3.171,41.563 3.343,41.563 C3.45,41.563 3.555,41.553 3.657,41.535 C3.565,41.4 3.511,41.238 3.511,41.063 C3.511,40.602 3.885,40.229 4.346,40.229 C4.386,40.229 4.425,40.232 4.464,40.237 C4.023,40.424 3.753,40.807 3.846,41.156 C3.912,41.403 4.145,41.574 4.446,41.631 C4.442,41.816 4.391,41.99 4.304,42.141 C4.691,42.113 5.022,41.88 5.187,41.549 C5.643,41.366 5.924,40.975 5.83,40.62 C5.796,40.493 5.718,40.386 5.61,40.305 C5.609,40.293 5.608,40.28 5.608,40.268 C5.608,40.024 5.807,39.825 6.051,39.825 C6.296,39.825 6.494,40.024 6.494,40.268 C6.494,40.384 6.45,40.489 6.377,40.568 L7.304,40.568 C7.362,40.568 7.418,40.553 7.466,40.527 C7.515,40.502 7.558,40.464 7.591,40.415 L8.186,39.533 C8.208,39.5 8.238,39.475 8.271,39.457 C8.304,39.44 8.342,39.429 8.382,39.429 L9.11,39.429 C9.07,39.429 9.032,39.44 8.999,39.457 C8.966,39.475 8.936,39.5 8.914,39.533 L8.317,40.416 C8.284,40.464 8.241,40.502 8.192,40.527 C8.144,40.553 8.089,40.568 8.03,40.568 L9.138,40.568 C9.197,40.568 9.252,40.553 9.3,40.527 C9.349,40.502 9.393,40.464 9.425,40.415 L10.093,39.43 C9.632,39.178 9.443,38.737 9.443,38.131 C9.443,37.754 9.655,37.324 9.687,37.047 L9.7,36.937 C9.707,36.878 9.699,36.822 9.679,36.771 C9.663,36.729 9.631,36.669 9.596,36.628 L10.166,37.212 C10.211,37.25 10.243,37.298 10.262,37.349 C10.283,37.4 10.291,37.457 10.284,37.516 L10.267,37.649 C10.24,37.881 9.948,38.381 10.49,38.839 C10.517,38.862 10.584,38.91 10.648,38.95 L11.033,39.192 L11.033,37.771 L11.572,37.771 L11.572,39.352 C11.573,39.411 11.59,39.466 11.617,39.514 C11.644,39.561 11.682,39.604 11.732,39.635 L12.259,39.97 C12.309,40.001 12.364,40.019 12.418,40.023 C12.473,40.027 12.53,40.019 12.583,39.996 L13.554,39.574 C13.5,39.598 13.443,39.606 13.389,39.601 C13.334,39.597 13.279,39.58 13.23,39.549 L12.115,38.839 C12.657,38.381 12.364,37.881 12.337,37.649 L12.321,37.516 C12.314,37.457 12.322,37.4 12.342,37.349 C12.362,37.298 12.394,37.25 12.438,37.212 L13.008,36.628 C12.973,36.669 12.942,36.729 12.926,36.771 C12.906,36.822 12.898,36.878 12.905,36.937 L12.917,37.047 C12.963,37.442 13.363,38.158 13.03,38.558 L14.049,39.204 C14.099,39.235 14.154,39.253 14.208,39.257 C14.263,39.261 14.32,39.253 14.374,39.229 L15.389,38.788 C15.335,38.811 15.279,38.819 15.225,38.815 C15.17,38.811 15.115,38.794 15.065,38.762 L13.963,38.061 C14.203,37.57 14.001,36.788 13.768,36.336 L13.733,36.269 C13.707,36.217 13.695,36.16 13.697,36.105 C13.697,36.05 13.711,35.995 13.74,35.944 L14.118,35.262 C14.09,35.312 14.076,35.368 14.076,35.422 C14.074,35.477 14.086,35.533 14.112,35.585 L14.251,35.856 C14.324,35.989 14.365,36.07 14.429,36.227 C15.049,35.668 15.187,35.129 14.792,34.67 L14.674,34.531 C14.636,34.487 14.611,34.435 14.599,34.382 C14.586,34.328 14.586,34.271 14.602,34.214 L14.804,33.461 C14.789,33.517 14.789,33.574 14.801,33.627 C14.813,33.68 14.838,33.732 14.877,33.776 L15.265,34.229 C16.019,35.081 15.563,36.179 14.663,37.017 C14.713,37.177 14.756,37.478 14.72,37.641 L15.915,38.399 C15.965,38.431 16.02,38.448 16.075,38.452 C16.129,38.457 16.186,38.448 16.24,38.425 L17.104,38.049 C17.055,38.07 17,38.082 16.944,38.082 C16.721,38.082 16.541,37.902 16.541,37.68 C16.541,37.5 16.658,37.345 16.822,37.296 C20.121,36.292 23.158,33.702 25.152,33.708 C26.121,33.712 26.907,34.298 26.907,35.025 C26.907,35.142 26.886,35.256 26.848,35.365 C26.423,36.559 27.042,37.699 28.677,38.139 C28.937,38.209 29.129,38.447 29.129,38.729 C29.129,38.784 29.121,38.838 29.108,38.888 C29.145,38.892 29.183,38.893 29.222,38.893 C29.672,38.893 30.07,38.669 30.311,38.327 C30.592,38.325 30.898,38.308 31.212,38.275 C31.25,38.351 31.28,38.438 31.298,38.532 C31.365,38.876 31.246,39.186 31.035,39.254 C30.66,39.376 30.2,39.23 29.845,39.233 C29.173,39.24 28.63,39.786 28.63,40.459 C28.63,40.512 28.633,40.564 28.64,40.616 C28.429,40.747 28.289,40.981 28.289,41.247 C28.289,41.38 28.324,41.505 28.385,41.613 C28.592,41.372 28.861,41.185 29.168,41.077 C29.194,40.487 29.68,40.017 30.276,40.017 C30.367,40.017 30.457,40.028 30.541,40.049 C29.937,40.125 29.469,40.641 29.469,41.266 C29.469,41.311 29.472,41.356 29.477,41.401 C29.402,41.491 29.357,41.608 29.357,41.734 C29.357,41.895 29.429,42.039 29.542,42.136 C29.656,41.886 29.931,41.651 30.287,41.531 C30.526,41.451 30.761,41.435 30.957,41.475 C30.926,41.381 30.91,41.281 30.91,41.178 C30.91,40.644 31.342,40.212 31.875,40.212 C31.924,40.212 31.973,40.216 32.02,40.223 C31.648,40.274 31.362,40.592 31.362,40.977 C31.362,41.233 31.488,41.459 31.681,41.598 C31.681,41.611 31.68,41.625 31.68,41.639 C31.68,41.849 31.776,42.035 31.927,42.158 C31.994,41.808 32.301,41.544 32.671,41.544 C32.987,41.544 33.248,41.504 33.443,41.44 C33.773,41.332 34.014,41.027 34.014,40.662 C34.014,40.409 33.899,40.183 33.718,40.034 C33.807,39.624 33.791,38.951 33.652,38.391 C33.68,38.387 33.709,38.385 33.739,38.385 C33.969,38.385 34.172,38.503 34.29,38.683 L34.29,38.683 Z M8.354,35.856 L8.492,35.585 C8.519,35.533 8.53,35.477 8.529,35.422 C8.528,35.368 8.514,35.312 8.486,35.262 L8.865,35.944 C8.893,35.995 8.907,36.05 8.908,36.105 C8.91,36.16 8.898,36.217 8.871,36.269 L8.837,36.336 C8.604,36.788 8.387,37.635 8.628,38.126 C8.066,37.917 7.881,37.425 7.941,37.017 C6.884,36.014 6.617,34.997 7.372,34.145 L7.76,33.692 C7.799,33.648 7.824,33.596 7.835,33.543 C7.848,33.49 7.848,33.433 7.833,33.377 L8.035,34.13 C8.05,34.187 8.051,34.244 8.038,34.298 C8.026,34.351 8.001,34.403 7.963,34.447 L7.845,34.585 C7.45,35.045 7.556,35.668 8.175,36.227 C8.239,36.07 8.281,35.989 8.354,35.856 L8.354,35.856 Z M9.762,30.414 L9.513,30.414 C9.243,30.414 9.004,30.052 9.004,29.727 C9.152,29.892 9.308,29.963 9.52,29.963 L10.662,29.963 C10.764,29.963 10.866,30.042 10.91,30.173 C10.942,30.27 10.924,30.414 10.906,30.555 C10.851,30.451 10.782,30.414 10.693,30.414 L10.433,30.414 C10.495,30.489 10.532,30.585 10.532,30.691 C10.532,30.931 10.337,31.126 10.097,31.126 C9.857,31.126 9.662,30.931 9.662,30.691 C9.662,30.585 9.699,30.489 9.762,30.414 L9.762,30.414 Z M10.049,28.352 L10.523,28.955 C10.629,29.083 10.662,29.169 10.787,29.186 L10.389,29.186 C10.19,29.186 10.053,29.105 9.937,28.971 L9.482,28.377 C9.407,28.283 9.348,28.217 9.25,28.174 L9.7,28.174 C9.835,28.174 9.955,28.232 10.049,28.352 L10.049,28.352 Z M11.368,28.205 L11.95,29.023 C12.042,29.157 12.129,29.232 12.254,29.283 L11.721,29.283 C11.516,29.283 11.393,29.189 11.303,29.041 L10.845,28.339 C10.67,28.076 10.601,28.011 10.4,27.939 L10.895,27.939 C11.09,27.939 11.272,28.066 11.368,28.205 L11.368,28.205 Z M13.449,29.186 L13.051,29.186 C12.852,29.186 12.715,29.105 12.599,28.971 L12.144,28.377 C12.069,28.283 12.01,28.217 11.912,28.174 L12.362,28.174 C12.497,28.174 12.617,28.232 12.711,28.352 L13.185,28.955 C13.291,29.083 13.324,29.169 13.449,29.186 L13.449,29.186 Z M13.6,29.727 C13.6,30.052 13.362,30.414 13.091,30.414 L12.843,30.414 C12.905,30.489 12.943,30.585 12.943,30.691 C12.943,30.931 12.748,31.126 12.508,31.126 C12.267,31.126 12.072,30.931 12.072,30.691 C12.072,30.585 12.11,30.489 12.172,30.414 L11.912,30.414 C11.823,30.414 11.754,30.451 11.699,30.555 C11.681,30.414 11.663,30.27 11.695,30.173 C11.739,30.042 11.841,29.963 11.943,29.963 L13.085,29.963 C13.296,29.963 13.453,29.892 13.6,29.727 L13.6,29.727 Z M13.249,32.198 C13.17,32.219 13.127,32.265 13.118,32.348 C13.071,32.794 12.89,32.974 12.601,33.075 C12.597,33.525 12.535,33.865 12.413,34.287 C12.756,35.004 12.493,35.505 12.215,35.612 C11.95,35.715 11.608,35.577 11.305,35.577 C11.002,35.577 10.655,35.715 10.39,35.612 C10.111,35.505 9.849,35.004 10.191,34.287 C10.07,33.865 10.007,33.525 10.004,33.075 C9.715,32.974 9.533,32.794 9.486,32.348 C9.477,32.265 9.434,32.219 9.356,32.198 C8.216,31.885 8.108,30.469 8.685,30.068 C8.634,30.702 8.579,31.597 9.875,31.716 C9.854,32.46 10.176,32.659 10.507,32.659 C10.778,32.66 10.933,32.573 11.001,32.537 C11.242,32.409 11.076,32.213 11.014,32.155 C10.848,32 10.764,31.78 10.804,31.561 C10.811,31.521 10.826,31.501 10.863,31.501 L11.302,31.501 L11.741,31.501 C11.778,31.501 11.794,31.521 11.801,31.561 C11.84,31.78 11.756,32 11.591,32.155 C11.529,32.213 11.363,32.409 11.604,32.537 C11.671,32.573 11.827,32.66 12.098,32.659 C12.429,32.659 12.751,32.46 12.73,31.716 C14.026,31.597 13.971,30.702 13.92,30.068 C14.497,30.469 14.388,31.885 13.249,32.198 L13.249,32.198 Z M12.101,34.927 C12.135,34.548 11.704,34.413 11.302,34.413 C10.9,34.413 10.47,34.548 10.503,34.927 C10.544,35.389 10.976,35.169 11.302,35.171 C11.628,35.169 12.06,35.389 12.101,34.927 L12.101,34.927 Z M11.968,34.028 C12.03,33.694 12.056,33.37 12.044,33.058 L11.745,33.408 C11.686,33.269 11.647,33.183 11.607,33.114 C11.574,33.057 11.546,33.018 11.507,33.011 C11.487,33.022 11.457,33.038 11.424,33.045 C11.386,33.054 11.334,33.051 11.302,33.051 C11.271,33.051 11.219,33.054 11.18,33.045 C11.148,33.038 11.118,33.022 11.098,33.011 C11.058,33.018 11.031,33.057 10.998,33.114 C10.958,33.183 10.919,33.269 10.86,33.408 L10.56,33.058 C10.549,33.37 10.574,33.694 10.637,34.028 C10.858,33.98 11.086,33.962 11.302,33.962 C11.518,33.962 11.746,33.98 11.968,34.028 L11.968,34.028 Z M17.408,24.697 C17.456,24.697 17.503,24.7 17.549,24.705 C17.081,24.84 16.703,25.189 16.528,25.639 C16.237,25.735 16.027,26.01 16.027,26.333 C16.027,26.484 16.073,26.624 16.151,26.74 C16.404,26.458 16.736,26.247 17.113,26.145 C17.221,25.603 17.672,25.185 18.23,25.126 C17.743,25.33 17.401,25.812 17.401,26.373 C17.401,26.572 17.444,26.76 17.521,26.93 C17.607,26.621 17.89,26.394 18.226,26.394 C18.311,26.394 18.392,26.408 18.467,26.435 C18.571,26.473 18.684,26.494 18.801,26.494 C19.342,26.494 19.78,26.054 19.78,25.512 C19.78,25.404 19.763,25.3 19.731,25.203 C19.988,25.277 20.177,25.515 20.177,25.797 C20.177,25.926 20.137,26.045 20.07,26.145 C20.142,26.158 20.216,26.164 20.292,26.164 C20.929,26.164 21.455,25.685 21.528,25.067 C21.848,24.894 22.129,24.66 22.371,24.368 L22.541,25.197 C22.553,25.255 22.55,25.312 22.534,25.365 C22.519,25.417 22.491,25.467 22.45,25.51 L23.153,24.787 C23.194,24.745 23.222,24.695 23.236,24.642 C23.252,24.589 23.255,24.532 23.243,24.475 L23.036,23.463 C23.024,23.406 23.027,23.348 23.043,23.296 C23.058,23.243 23.086,23.193 23.127,23.151 L23.68,22.587 C23.639,22.63 23.611,22.68 23.596,22.732 C23.581,22.785 23.578,22.842 23.59,22.9 L23.797,23.913 C23.809,23.97 23.806,24.027 23.791,24.08 C23.776,24.132 23.749,24.181 23.709,24.223 L24.336,23.571 C24.376,23.529 24.404,23.479 24.419,23.426 C24.435,23.374 24.438,23.316 24.426,23.259 L24.219,22.249 C24.207,22.192 24.21,22.134 24.226,22.082 C24.241,22.029 24.269,21.979 24.31,21.937 L24.863,21.373 C24.822,21.415 24.794,21.465 24.779,21.518 C24.764,21.571 24.761,21.628 24.773,21.685 L24.981,22.698 C24.993,22.755 24.989,22.813 24.974,22.865 C24.959,22.917 24.932,22.966 24.892,23.008 L25.519,22.357 C25.56,22.315 25.587,22.265 25.602,22.212 C25.618,22.159 25.621,22.102 25.609,22.044 L25.508,21.55 C25.402,20.991 25.979,20.348 26.437,20.283 C26.492,20.177 26.522,20.062 26.522,19.943 C26.522,19.376 25.847,18.916 25.013,18.916 C24.606,18.916 24.236,19.026 23.964,19.205 C24.073,19.528 24.096,19.856 23.027,20.008 C22.179,20.129 21.433,20.293 20.866,20.774 C19.992,21.515 20.063,22.506 19.566,22.881 C19.787,22.935 20.068,22.935 20.369,22.87 C20.559,22.829 20.735,22.766 20.89,22.689 C20.797,22.867 20.584,23.036 20.304,23.156 C20.212,23.506 19.901,23.84 19.481,23.996 C19.216,24.094 18.953,24.104 18.735,24.041 L17.712,23.745 C17.586,23.709 17.455,23.69 17.318,23.69 C16.564,23.69 15.942,24.271 15.85,25.022 C15.494,25.072 15.221,25.378 15.221,25.747 C15.221,25.883 15.258,26.01 15.322,26.118 C15.567,25.869 15.878,25.684 16.226,25.59 C16.372,25.075 16.846,24.697 17.408,24.697 L17.408,24.697 Z M17.481,30.467 C17.463,30.378 17.465,30.286 17.484,30.195 C17.522,30.019 17.678,29.886 17.866,29.886 C18.082,29.886 18.256,30.061 18.256,30.277 C18.256,30.38 18.216,30.474 18.151,30.544 C18.224,30.551 18.299,30.555 18.377,30.555 C18.578,30.555 18.769,30.53 18.937,30.485 C19.212,30.411 19.414,30.16 19.414,29.862 C19.414,29.506 19.125,29.218 18.769,29.218 C18.75,29.218 18.73,29.219 18.711,29.22 C18.801,29.182 18.9,29.161 19.004,29.161 C19.417,29.161 19.753,29.496 19.753,29.91 C19.753,29.931 19.752,29.953 19.75,29.974 C20.866,29.949 22.124,28.931 22.399,28.543 C22.049,28.623 21.67,28.667 21.274,28.667 C20.825,28.667 20.396,28.612 20.008,28.509 C19.459,28.364 18.919,28.283 18.504,28.283 C17.135,28.283 16.025,29.176 16.025,30.278 C16.025,31.188 16.777,31.983 17.819,32.196 C20.19,32.681 22.979,31.272 25.335,30.784 C25.924,30.208 26.605,29.727 27.354,29.364 C27.332,29.277 27.32,29.187 27.32,29.095 L27.32,29.089 C24.194,29.603 21.381,31.207 18.841,31.194 C18.129,31.191 17.571,30.918 17.481,30.467 L17.481,30.467 Z M34.29,23.518 C34.331,23.417 34.354,23.306 34.354,23.19 C34.354,22.717 33.971,22.332 33.498,22.332 L32.632,22.332 C32.573,22.333 32.518,22.318 32.469,22.292 C32.421,22.267 32.377,22.229 32.344,22.181 L31.91,21.54 C31.943,21.589 31.986,21.626 32.035,21.651 C32.083,21.677 32.139,21.692 32.198,21.691 L33.339,21.692 C33.398,21.692 33.454,21.706 33.502,21.732 C33.551,21.757 33.594,21.795 33.627,21.843 L33.103,21.076 C33.07,21.027 33.026,20.99 32.977,20.965 C32.929,20.939 32.873,20.924 32.815,20.924 L31.683,20.925 C31.625,20.925 31.569,20.911 31.521,20.885 C31.472,20.859 31.428,20.822 31.395,20.774 L30.903,20.049 C30.936,20.098 30.98,20.135 31.028,20.16 C31.077,20.186 31.132,20.201 31.191,20.201 L32.327,20.2 C32.386,20.2 32.442,20.214 32.49,20.24 C32.539,20.265 32.582,20.303 32.615,20.351 L32.091,19.583 C32.058,19.535 32.014,19.498 31.965,19.472 C31.917,19.447 31.861,19.432 31.803,19.432 L30.9,19.432 C30.841,19.432 30.786,19.417 30.737,19.392 C30.689,19.366 30.645,19.329 30.612,19.28 L30.005,18.39 C31.232,18.243 32.222,17.578 32.419,16.662 C32.675,15.474 31.493,14.321 29.783,14.07 C29.495,14.028 29.275,13.781 29.275,13.482 C29.275,13.228 29.435,13.01 29.66,12.926 C29.478,12.847 29.274,12.803 29.058,12.803 C28.302,12.803 27.688,13.345 27.688,14.014 C27.688,14.134 27.709,14.251 27.746,14.361 C26.898,14.727 26.126,15.376 25.535,16.077 C26.167,15.909 26.831,15.819 27.516,15.819 C27.513,15.787 27.511,15.755 27.511,15.722 C27.511,15.21 27.926,14.794 28.439,14.794 L28.452,14.794 C28.102,14.948 27.932,15.284 27.932,15.506 C27.932,15.771 28.147,15.986 28.411,15.986 C28.514,15.986 28.61,15.953 28.688,15.898 C28.67,15.838 28.66,15.774 28.66,15.707 C28.66,15.34 28.957,15.043 29.325,15.043 C29.357,15.043 29.39,15.045 29.421,15.05 C29.168,15.168 28.992,15.426 28.992,15.724 C28.992,16.135 29.325,16.468 29.736,16.468 C29.78,16.468 29.822,16.465 29.864,16.458 C29.852,16.414 29.846,16.369 29.846,16.322 C29.846,16.027 30.085,15.789 30.379,15.789 C30.674,15.789 30.913,16.027 30.913,16.322 C30.913,16.963 30.201,17.022 29.682,16.873 C28.204,16.447 26.82,16.256 25.481,16.444 C23.763,16.685 20.949,17.846 17.962,17.749 C17.294,17.728 16.565,17.617 15.831,17.416 C15.921,17.515 15.979,17.583 16.017,17.641 C16.308,18.094 16.408,18.569 16.151,19.163 C16.158,18.497 15.608,17.949 15.147,17.613 C14.961,17.478 14.886,17.349 14.917,17.176 L15.053,16.408 C15.043,16.465 15.048,16.522 15.065,16.574 C15.082,16.626 15.111,16.675 15.153,16.716 L15.44,16.997 C15.549,16.22 15.373,15.495 14.91,14.824 C15.115,14.288 15.143,13.697 15.006,13.142 C14.952,13.562 14.746,13.742 14.551,13.864 C14.187,14.092 14.127,14.475 14.315,14.732 C14.009,14.576 13.585,14.007 13.83,13.674 C14.094,13.315 14.817,13.484 14.906,12.868 C14.437,12.719 13.954,12.824 13.807,12.864 C13.529,12.545 13.16,12.387 12.701,12.39 C12.338,12.061 11.872,11.924 11.302,11.981 C10.733,11.924 10.267,12.061 9.904,12.39 C9.445,12.387 9.076,12.545 8.798,12.864 C8.65,12.824 8.168,12.719 7.698,12.868 C7.787,13.484 8.51,13.315 8.774,13.674 C9.019,14.007 8.596,14.576 8.289,14.732 C8.478,14.475 8.417,14.092 8.053,13.864 C7.859,13.742 7.652,13.562 7.598,13.142 C7.461,13.697 7.49,14.288 7.694,14.824 C7.231,15.495 7.055,16.22 7.164,16.997 L7.452,16.716 C7.494,16.675 7.523,16.626 7.54,16.574 C7.557,16.522 7.561,16.465 7.551,16.408 L7.687,17.176 C7.718,17.349 7.644,17.478 7.458,17.613 C6.996,17.949 6.446,18.497 6.453,19.163 C6.197,18.569 6.301,18.074 6.588,17.641 C5.712,17.168 5.045,16.391 4.922,16.249 C4.657,15.941 4.692,15.548 4.932,15.204 C5.395,14.542 5.505,13.836 4.924,13.353 C4.928,13.318 4.93,13.282 4.93,13.246 C4.93,12.807 4.618,12.441 4.203,12.359 C4.28,12.478 4.325,12.621 4.325,12.774 C4.325,12.949 4.267,13.11 4.168,13.24 C4.25,13.347 4.299,13.482 4.299,13.628 C4.299,13.824 4.211,13.999 4.072,14.116 C4.086,14.049 4.093,13.979 4.093,13.907 C4.093,13.455 3.813,13.077 3.434,12.973 C3.373,12.645 3.085,12.396 2.739,12.396 C2.538,12.396 2.358,12.479 2.229,12.613 C2.497,12.634 2.713,12.844 2.742,13.11 C2.614,13.206 2.511,13.339 2.444,13.494 L2.461,13.494 C2.924,13.494 3.299,13.869 3.299,14.332 C3.299,14.384 3.294,14.436 3.285,14.486 C3.25,14.296 3.164,14.12 3.025,13.985 C2.765,13.731 2.387,13.678 2.041,13.81 C1.911,13.647 1.711,13.542 1.487,13.542 C1.233,13.542 1.011,13.675 0.886,13.875 C1.142,13.886 1.367,14.015 1.508,14.21 C1.144,14.676 1.14,15.32 1.512,15.683 C1.764,15.929 2.125,15.986 2.462,15.87 C2.484,15.863 2.508,15.859 2.533,15.859 C2.657,15.859 2.757,15.959 2.757,16.082 C2.757,16.205 2.657,16.305 2.533,16.305 C2.479,16.305 2.429,16.286 2.391,16.254 C2.306,16.183 2.196,16.141 2.077,16.141 C1.807,16.141 1.587,16.36 1.587,16.631 C1.587,16.652 1.588,16.672 1.591,16.692 C1.545,16.706 1.496,16.714 1.445,16.714 C1.313,16.714 1.193,16.66 1.105,16.574 C1.091,16.627 1.084,16.683 1.084,16.741 C1.084,17.086 1.35,17.369 1.689,17.395 C1.841,17.773 2.212,18.039 2.644,18.039 C2.866,18.039 3.071,17.969 3.239,17.851 C3.313,17.8 3.401,17.769 3.497,17.769 C3.746,17.769 3.948,17.971 3.948,18.22 C3.948,18.435 3.798,18.614 3.597,18.66 L3.246,18.737 C3.189,18.75 3.131,18.747 3.078,18.732 C3.025,18.718 2.975,18.691 2.933,18.651 L3.736,19.413 C3.779,19.453 3.829,19.481 3.882,19.495 C3.935,19.51 3.992,19.513 4.05,19.5 L4.707,19.354 C4.764,19.341 4.822,19.344 4.874,19.359 C4.927,19.373 4.978,19.401 5.02,19.441 L5.571,19.965 C5.528,19.925 5.478,19.897 5.425,19.883 C5.372,19.868 5.315,19.865 5.258,19.878 L4.601,20.023 C4.544,20.036 4.486,20.033 4.434,20.018 C4.381,20.004 4.33,19.977 4.288,19.937 L5.024,20.635 C5.066,20.675 5.117,20.702 5.169,20.717 C5.222,20.732 5.28,20.734 5.337,20.721 L5.995,20.577 C6.053,20.565 6.11,20.567 6.163,20.582 C6.216,20.596 6.266,20.624 6.309,20.664 L6.86,21.188 C6.817,21.148 6.767,21.121 6.714,21.106 C6.661,21.091 6.604,21.089 6.546,21.101 L5.89,21.246 C5.832,21.259 5.775,21.256 5.722,21.241 C5.669,21.227 5.619,21.2 5.576,21.159 L6.312,21.857 C6.355,21.898 6.405,21.925 6.458,21.939 C6.511,21.954 6.568,21.957 6.626,21.944 L7.421,21.77 C6.649,22.206 5.827,22.7 4.956,23.251 C4.441,23.576 3.878,23.637 3.231,23.389 C2.884,23.256 2.506,23.234 2.268,23.275 C1.958,23.328 1.695,23.516 1.542,23.777 C1.662,23.729 1.793,23.702 1.931,23.702 C2.22,23.702 2.481,23.819 2.671,24.007 C2.37,23.881 1.996,23.868 1.633,24.001 C0.983,24.237 0.604,24.85 0.752,25.399 C0.51,25.492 0.339,25.727 0.339,26.001 C0.339,26.182 0.413,26.346 0.533,26.463 C0.597,26.175 0.849,25.958 1.154,25.947 C1.281,26.031 1.429,26.09 1.588,26.122 C1.636,26.039 1.697,25.965 1.767,25.901 C1.76,25.849 1.756,25.796 1.756,25.742 C1.756,25.149 2.236,24.668 2.829,24.668 C2.878,24.668 2.927,24.671 2.974,24.678 C2.503,24.791 2.152,25.215 2.152,25.722 C2.152,25.786 2.158,25.849 2.169,25.91 C1.915,26.008 1.736,26.253 1.736,26.541 C1.736,26.706 1.795,26.857 1.894,26.975 C2.076,26.619 2.431,26.367 2.848,26.327 C3.005,26.373 3.171,26.398 3.343,26.398 C3.45,26.398 3.555,26.388 3.657,26.37 C3.565,26.236 3.511,26.073 3.511,25.898 C3.511,25.437 3.885,25.064 4.346,25.064 C4.386,25.064 4.425,25.066 4.464,25.072 C4.023,25.259 3.753,25.642 3.846,25.991 C3.912,26.238 4.145,26.409 4.446,26.466 C4.442,26.651 4.391,26.825 4.304,26.976 C4.691,26.948 5.022,26.715 5.187,26.384 C5.643,26.201 5.924,25.81 5.83,25.455 C5.796,25.328 5.718,25.221 5.61,25.14 C5.609,25.128 5.608,25.115 5.608,25.103 C5.608,24.859 5.807,24.66 6.051,24.66 C6.296,24.66 6.494,24.859 6.494,25.103 C6.494,25.219 6.45,25.324 6.377,25.403 L7.304,25.403 C7.362,25.403 7.418,25.388 7.466,25.362 C7.515,25.337 7.558,25.299 7.591,25.25 L8.186,24.368 C8.208,24.335 8.238,24.31 8.271,24.292 C8.304,24.275 8.342,24.264 8.382,24.264 L9.11,24.264 C9.07,24.264 9.032,24.275 8.999,24.292 C8.966,24.31 8.936,24.335 8.914,24.368 L8.317,25.25 C8.284,25.299 8.241,25.337 8.192,25.362 C8.144,25.388 8.089,25.403 8.03,25.403 L9.138,25.403 C9.197,25.403 9.252,25.388 9.3,25.362 C9.349,25.337 9.393,25.299 9.425,25.25 L10.093,24.265 C9.632,24.013 9.443,23.572 9.443,22.966 C9.443,22.589 9.655,22.159 9.687,21.882 L9.7,21.772 C9.707,21.714 9.699,21.657 9.679,21.606 C9.663,21.564 9.631,21.504 9.596,21.463 L10.166,22.047 C10.211,22.085 10.243,22.133 10.262,22.184 C10.283,22.235 10.291,22.292 10.284,22.35 L10.267,22.484 C10.24,22.716 9.948,23.216 10.49,23.674 C10.517,23.697 10.584,23.745 10.648,23.785 L11.033,24.027 L11.033,22.606 L11.572,22.606 L11.572,24.187 C11.573,24.246 11.59,24.301 11.617,24.349 C11.644,24.396 11.682,24.439 11.732,24.47 L12.259,24.805 C12.309,24.837 12.364,24.854 12.418,24.858 C12.473,24.862 12.53,24.854 12.583,24.831 L13.554,24.409 C13.5,24.433 13.443,24.441 13.389,24.436 C13.334,24.432 13.279,24.415 13.23,24.384 L12.115,23.674 C12.657,23.216 12.364,22.716 12.337,22.484 L12.321,22.35 C12.314,22.292 12.322,22.235 12.342,22.184 C12.362,22.133 12.394,22.085 12.438,22.047 L13.008,21.463 C12.973,21.504 12.942,21.564 12.926,21.606 C12.906,21.657 12.898,21.714 12.905,21.772 L12.917,21.882 C12.963,22.277 13.363,22.993 13.03,23.392 L14.049,24.039 C14.099,24.07 14.154,24.088 14.208,24.092 C14.263,24.096 14.32,24.088 14.374,24.064 L15.389,23.623 C15.335,23.646 15.279,23.654 15.225,23.65 C15.17,23.646 15.115,23.629 15.065,23.597 L13.963,22.896 C14.203,22.405 14.001,21.623 13.768,21.171 L13.733,21.104 C13.707,21.052 13.695,20.995 13.697,20.94 C13.697,20.886 13.711,20.83 13.74,20.779 L14.118,20.097 C14.09,20.147 14.076,20.203 14.076,20.257 C14.074,20.312 14.086,20.368 14.112,20.42 L14.251,20.691 C14.324,20.824 14.365,20.905 14.429,21.062 C15.049,20.503 15.187,19.964 14.792,19.505 L14.674,19.366 C14.636,19.322 14.611,19.27 14.599,19.217 C14.586,19.163 14.586,19.106 14.602,19.049 L14.804,18.296 C14.789,18.352 14.789,18.409 14.801,18.462 C14.813,18.515 14.838,18.567 14.877,18.612 L15.265,19.064 C16.019,19.916 15.563,21.014 14.663,21.851 C14.713,22.012 14.756,22.313 14.72,22.476 L15.915,23.234 C15.965,23.266 16.02,23.283 16.075,23.287 C16.129,23.292 16.186,23.283 16.24,23.26 L17.104,22.884 C17.055,22.905 17,22.917 16.944,22.917 C16.721,22.917 16.541,22.737 16.541,22.515 C16.541,22.335 16.658,22.18 16.822,22.131 C20.121,21.128 23.158,18.537 25.152,18.544 C26.121,18.547 26.907,19.133 26.907,19.86 C26.907,19.977 26.886,20.091 26.848,20.2 C26.423,21.394 27.042,22.534 28.677,22.974 C28.937,23.044 29.129,23.282 29.129,23.564 C29.129,23.619 29.121,23.673 29.108,23.723 C29.145,23.727 29.183,23.728 29.222,23.728 C29.672,23.728 30.07,23.505 30.311,23.162 C30.592,23.16 30.898,23.143 31.212,23.11 C31.25,23.186 31.28,23.273 31.298,23.367 C31.365,23.711 31.246,24.021 31.035,24.089 C30.66,24.211 30.2,24.065 29.845,24.069 C29.173,24.075 28.63,24.621 28.63,25.295 C28.63,25.347 28.633,25.399 28.64,25.451 C28.429,25.582 28.289,25.816 28.289,26.082 C28.289,26.215 28.324,26.34 28.385,26.448 C28.592,26.207 28.861,26.02 29.168,25.912 C29.194,25.322 29.68,24.852 30.276,24.852 C30.367,24.852 30.457,24.863 30.541,24.884 C29.937,24.96 29.469,25.476 29.469,26.101 C29.469,26.146 29.472,26.191 29.477,26.236 C29.402,26.327 29.357,26.443 29.357,26.57 C29.357,26.73 29.429,26.874 29.542,26.971 C29.656,26.721 29.931,26.487 30.287,26.366 C30.526,26.286 30.761,26.27 30.957,26.31 C30.926,26.216 30.91,26.116 30.91,26.013 C30.91,25.479 31.342,25.047 31.875,25.047 C31.924,25.047 31.973,25.051 32.02,25.058 C31.648,25.108 31.362,25.427 31.362,25.812 C31.362,26.068 31.488,26.294 31.681,26.433 C31.681,26.446 31.68,26.46 31.68,26.474 C31.68,26.684 31.776,26.87 31.927,26.993 C31.994,26.643 32.301,26.379 32.671,26.379 C32.987,26.379 33.248,26.339 33.443,26.275 C33.773,26.167 34.014,25.862 34.014,25.497 C34.014,25.244 33.899,25.018 33.718,24.869 C33.807,24.459 33.791,23.786 33.652,23.226 C33.68,23.222 33.709,23.22 33.739,23.22 C33.969,23.22 34.172,23.339 34.29,23.518 L34.29,23.518 Z M8.354,20.691 L8.492,20.42 C8.519,20.368 8.53,20.312 8.529,20.257 C8.528,20.203 8.514,20.147 8.486,20.097 L8.865,20.779 C8.893,20.83 8.907,20.886 8.908,20.94 C8.91,20.995 8.898,21.052 8.871,21.104 L8.837,21.171 C8.604,21.623 8.387,22.47 8.628,22.961 C8.066,22.752 7.881,22.26 7.941,21.851 C6.884,20.849 6.617,19.832 7.372,18.98 L7.76,18.527 C7.799,18.483 7.824,18.431 7.835,18.378 C7.848,18.325 7.848,18.268 7.833,18.212 L8.035,18.965 C8.05,19.022 8.051,19.079 8.038,19.133 C8.026,19.186 8.001,19.238 7.963,19.282 L7.845,19.42 C7.45,19.88 7.556,20.503 8.175,21.062 C8.239,20.905 8.281,20.824 8.354,20.691 L8.354,20.691 Z M9.762,15.249 L9.513,15.249 C9.243,15.249 9.004,14.887 9.004,14.562 C9.152,14.727 9.308,14.799 9.52,14.799 L10.662,14.799 C10.764,14.799 10.866,14.877 10.91,15.009 C10.942,15.105 10.924,15.249 10.906,15.39 C10.851,15.286 10.782,15.249 10.693,15.249 L10.433,15.249 C10.495,15.324 10.532,15.421 10.532,15.526 C10.532,15.766 10.337,15.961 10.097,15.961 C9.857,15.961 9.662,15.766 9.662,15.526 C9.662,15.421 9.699,15.324 9.762,15.249 L9.762,15.249 Z M10.049,13.187 L10.523,13.79 C10.629,13.918 10.662,14.004 10.787,14.021 L10.389,14.021 C10.19,14.021 10.053,13.94 9.937,13.806 L9.482,13.212 C9.407,13.118 9.348,13.052 9.25,13.009 L9.7,13.009 C9.835,13.009 9.955,13.067 10.049,13.187 L10.049,13.187 Z M11.368,13.04 L11.95,13.858 C12.042,13.992 12.129,14.067 12.254,14.118 L11.721,14.118 C11.516,14.118 11.393,14.024 11.303,13.876 L10.845,13.174 C10.67,12.911 10.601,12.846 10.4,12.774 L10.895,12.774 C11.09,12.774 11.272,12.901 11.368,13.04 L11.368,13.04 Z M13.449,14.021 L13.051,14.021 C12.852,14.021 12.715,13.94 12.599,13.806 L12.144,13.212 C12.069,13.118 12.01,13.052 11.912,13.009 L12.362,13.009 C12.497,13.009 12.617,13.067 12.711,13.187 L13.185,13.79 C13.291,13.918 13.324,14.004 13.449,14.021 L13.449,14.021 Z M13.6,14.562 C13.6,14.887 13.362,15.249 13.091,15.249 L12.843,15.249 C12.905,15.324 12.943,15.421 12.943,15.526 C12.943,15.766 12.748,15.961 12.508,15.961 C12.267,15.961 12.072,15.766 12.072,15.526 C12.072,15.421 12.11,15.324 12.172,15.249 L11.912,15.249 C11.823,15.249 11.754,15.286 11.699,15.39 C11.681,15.249 11.663,15.105 11.695,15.009 C11.739,14.877 11.841,14.799 11.943,14.799 L13.085,14.799 C13.296,14.799 13.453,14.727 13.6,14.562 L13.6,14.562 Z M13.249,17.033 C13.17,17.054 13.127,17.1 13.118,17.183 C13.071,17.629 12.89,17.809 12.601,17.91 C12.597,18.36 12.535,18.7 12.413,19.122 C12.756,19.839 12.493,20.34 12.215,20.448 C11.95,20.55 11.608,20.412 11.305,20.412 C11.002,20.412 10.655,20.55 10.39,20.448 C10.111,20.34 9.849,19.839 10.191,19.122 C10.07,18.7 10.007,18.36 10.004,17.91 C9.715,17.809 9.533,17.629 9.486,17.183 C9.477,17.1 9.434,17.054 9.356,17.033 C8.216,16.72 8.108,15.304 8.685,14.903 C8.634,15.537 8.579,16.432 9.875,16.551 C9.854,17.295 10.176,17.494 10.507,17.494 C10.778,17.495 10.933,17.408 11.001,17.372 C11.242,17.244 11.076,17.048 11.014,16.99 C10.848,16.835 10.764,16.616 10.804,16.396 C10.811,16.357 10.826,16.336 10.863,16.336 L11.302,16.336 L11.741,16.336 C11.778,16.336 11.794,16.357 11.801,16.396 C11.84,16.616 11.756,16.835 11.591,16.99 C11.529,17.048 11.363,17.244 11.604,17.372 C11.671,17.408 11.827,17.495 12.098,17.494 C12.429,17.494 12.751,17.295 12.73,16.551 C14.026,16.432 13.971,15.537 13.92,14.903 C14.497,15.304 14.388,16.72 13.249,17.033 L13.249,17.033 Z M12.101,19.762 C12.135,19.383 11.704,19.248 11.302,19.248 C10.9,19.248 10.47,19.383 10.503,19.762 C10.544,20.224 10.976,20.004 11.302,20.006 C11.628,20.004 12.06,20.224 12.101,19.762 L12.101,19.762 Z M11.968,18.863 C12.03,18.529 12.056,18.205 12.044,17.893 L11.745,18.243 C11.686,18.104 11.647,18.018 11.607,17.949 C11.574,17.892 11.546,17.853 11.507,17.846 C11.487,17.857 11.457,17.873 11.424,17.88 C11.386,17.889 11.334,17.886 11.302,17.886 C11.271,17.886 11.219,17.889 11.18,17.88 C11.148,17.873 11.118,17.857 11.098,17.846 C11.058,17.853 11.031,17.892 10.998,17.949 C10.958,18.018 10.919,18.104 10.86,18.243 L10.56,17.893 C10.549,18.205 10.574,18.529 10.637,18.863 C10.858,18.815 11.086,18.797 11.302,18.797 C11.518,18.797 11.746,18.815 11.968,18.863 L11.968,18.863 Z M25.335,15.619 C25.924,15.043 26.605,14.562 27.354,14.199 C27.332,14.112 27.32,14.022 27.32,13.93 L27.32,13.924 C24.194,14.438 21.381,16.042 18.841,16.029 C18.129,16.026 17.571,15.753 17.481,15.302 C17.463,15.213 17.465,15.121 17.484,15.03 C17.522,14.854 17.678,14.721 17.866,14.721 C18.082,14.721 18.256,14.896 18.256,15.112 C18.256,15.215 18.216,15.309 18.151,15.379 C18.224,15.386 18.299,15.39 18.377,15.39 C18.578,15.39 18.769,15.365 18.937,15.32 C19.212,15.246 19.414,14.995 19.414,14.697 C19.414,14.341 19.125,14.053 18.769,14.053 C18.75,14.053 18.73,14.054 18.711,14.055 C18.801,14.017 18.9,13.996 19.004,13.996 C19.417,13.996 19.753,14.331 19.753,14.745 C19.753,14.767 19.752,14.788 19.75,14.809 C20.866,14.784 22.124,13.766 22.399,13.378 C22.049,13.458 21.67,13.502 21.274,13.502 C20.825,13.502 20.396,13.447 20.008,13.344 C19.459,13.199 18.919,13.118 18.504,13.118 C17.135,13.118 16.025,14.011 16.025,15.113 C16.025,16.023 16.777,16.818 17.819,17.031 C20.19,17.516 22.979,16.107 25.335,15.619 L25.335,15.619 Z M15.221,56.077 C15.221,56.212 15.258,56.339 15.322,56.448 C15.567,56.199 15.878,56.014 16.226,55.92 C16.372,55.404 16.846,55.027 17.408,55.027 C17.456,55.027 17.503,55.029 17.549,55.035 C17.081,55.17 16.703,55.519 16.528,55.969 C16.237,56.065 16.027,56.34 16.027,56.663 C16.027,56.814 16.073,56.954 16.151,57.07 C16.404,56.787 16.736,56.577 17.113,56.475 C17.221,55.933 17.672,55.515 18.23,55.456 C17.743,55.66 17.401,56.142 17.401,56.703 C17.401,56.901 17.444,57.09 17.521,57.26 C17.607,56.951 17.89,56.724 18.226,56.724 C18.311,56.724 18.392,56.738 18.467,56.765 C18.571,56.803 18.684,56.823 18.801,56.823 C19.342,56.823 19.78,56.384 19.78,55.842 C19.78,55.734 19.763,55.63 19.731,55.532 C19.988,55.607 20.177,55.845 20.177,56.127 C20.177,56.256 20.137,56.375 20.07,56.474 C20.142,56.487 20.216,56.494 20.292,56.494 C20.929,56.494 21.455,56.015 21.528,55.397 C21.848,55.224 22.129,54.99 22.371,54.698 L22.541,55.527 C22.553,55.584 22.55,55.642 22.534,55.694 C22.519,55.747 22.491,55.797 22.45,55.839 L23.153,55.117 C23.194,55.075 23.222,55.025 23.236,54.972 C23.252,54.919 23.255,54.862 23.243,54.804 L23.036,53.793 C23.024,53.736 23.027,53.678 23.043,53.626 C23.058,53.573 23.086,53.523 23.127,53.481 L23.68,52.917 C23.639,52.959 23.611,53.009 23.596,53.062 C23.581,53.115 23.578,53.172 23.59,53.229 L23.797,54.242 C23.809,54.3 23.806,54.357 23.791,54.41 C23.776,54.462 23.749,54.511 23.709,54.553 L24.336,53.901 C24.376,53.859 24.404,53.809 24.419,53.756 C24.435,53.704 24.438,53.646 24.426,53.589 L24.219,52.579 C24.207,52.522 24.21,52.464 24.226,52.412 C24.241,52.359 24.269,52.309 24.31,52.267 L24.863,51.703 C24.822,51.745 24.794,51.795 24.779,51.848 C24.764,51.9 24.761,51.958 24.773,52.015 L24.981,53.028 C24.993,53.085 24.989,53.143 24.974,53.195 C24.959,53.247 24.932,53.296 24.892,53.338 L25.519,52.687 C25.56,52.645 25.587,52.594 25.602,52.542 C25.618,52.489 25.621,52.432 25.609,52.374 L25.508,51.88 C25.402,51.321 25.979,50.678 26.437,50.613 C26.492,50.507 26.522,50.392 26.522,50.273 C26.522,49.706 25.847,49.246 25.013,49.246 C24.606,49.246 24.236,49.356 23.964,49.535 C24.073,49.858 24.096,50.186 23.027,50.338 C22.179,50.458 21.433,50.623 20.866,51.104 C19.992,51.845 20.063,52.836 19.566,53.211 C19.787,53.265 20.068,53.265 20.369,53.2 C20.559,53.159 20.735,53.096 20.89,53.018 C20.797,53.197 20.584,53.366 20.304,53.486 C20.212,53.836 19.901,54.17 19.481,54.326 C19.216,54.424 18.953,54.434 18.735,54.371 L17.712,54.075 C17.586,54.039 17.455,54.02 17.318,54.02 C16.564,54.02 15.942,54.601 15.85,55.352 C15.494,55.402 15.221,55.708 15.221,56.077 L15.221,56.077 Z" id="Fill-1" sketch:type="MSShapeGroup"></path>
                <path d="M61.6187,39.165 L63.1607,39.165 L60.0957,34.41 L62.9427,30.115 L61.4387,30.115 L59.0457,34.093 L58.2937,34.093 L58.2937,30.115 L57.0317,30.115 L57.0317,39.165 L58.2937,39.165 L58.2937,35.106 L59.1577,35.106 L61.6187,39.165 Z M68.2567,31.924 L68.2567,36.663 C68.2567,37.185 68.1297,37.59 67.8747,37.879 C67.6197,38.169 67.2727,38.313 66.8337,38.313 C66.3987,38.313 66.0527,38.169 65.7957,37.879 C65.5387,37.59 65.4097,37.185 65.4097,36.663 L65.4097,31.924 L64.1547,31.924 L64.1547,36.672 C64.1547,37.489 64.4007,38.126 64.8937,38.584 C65.3877,39.042 66.0337,39.271 66.8337,39.271 C67.6337,39.271 68.2797,39.042 68.7727,38.584 C69.2657,38.126 69.5127,37.489 69.5127,36.672 L69.5127,31.924 L68.2567,31.924 Z M72.5707,31.924 L71.3147,31.924 L71.3147,39.165 L75.2437,39.165 L75.2437,38.208 L72.5707,38.208 L72.5707,31.924 Z M80.9497,31.924 L75.9887,31.924 L75.9887,32.881 L77.8227,32.881 L77.8227,39.165 L79.0787,39.165 L79.0787,32.881 L80.9497,32.881 L80.9497,31.924 Z M86.2637,31.924 L86.2637,36.663 C86.2637,37.185 86.1367,37.59 85.8817,37.879 C85.6267,38.169 85.2797,38.313 84.8407,38.313 C84.4057,38.313 84.0597,38.169 83.8027,37.879 C83.5457,37.59 83.4167,37.185 83.4167,36.663 L83.4167,31.924 L82.1617,31.924 L82.1617,36.672 C82.1617,37.489 82.4077,38.126 82.9007,38.584 C83.3947,39.042 84.0407,39.271 84.8407,39.271 C85.6397,39.271 86.2867,39.042 86.7797,38.584 C87.2727,38.126 87.5197,37.489 87.5197,36.672 L87.5197,31.924 L86.2637,31.924 Z M93.3437,31.924 L93.3437,36.663 C93.3437,37.185 93.2157,37.59 92.9607,37.879 C92.7067,38.169 92.3597,38.313 91.9197,38.313 C91.4847,38.313 91.1387,38.169 90.8817,37.879 C90.6247,37.59 90.4967,37.185 90.4967,36.663 L90.4967,31.924 L89.2407,31.924 L89.2407,36.672 C89.2407,37.489 89.4877,38.126 89.9807,38.584 C90.4737,39.042 91.1207,39.271 91.9197,39.271 C92.7197,39.271 93.3657,39.042 93.8597,38.584 C94.3527,38.126 94.5987,37.489 94.5987,36.672 L94.5987,31.924 L93.3437,31.924 Z M98.9247,36.231 C99.2567,36.231 99.5117,36.337 99.6897,36.548 C99.8677,36.759 99.9567,37.057 99.9567,37.437 L99.9567,38.09 C99.9567,38.306 99.9617,38.518 99.9727,38.725 C99.9827,38.932 100.0087,39.078 100.0497,39.165 L101.3487,39.165 L101.3487,39.06 C101.2957,38.973 101.2587,38.836 101.2407,38.649 C101.2217,38.463 101.2127,38.278 101.2127,38.097 L101.2127,37.432 C101.2127,36.996 101.1257,36.63 100.9517,36.334 C100.7777,36.037 100.4957,35.829 100.1057,35.709 C100.4537,35.547 100.7197,35.326 100.9017,35.044 C101.0837,34.762 101.1747,34.429 101.1747,34.043 C101.1747,33.376 100.9667,32.856 100.5507,32.483 C100.1337,32.11 99.5567,31.924 98.8197,31.924 L96.4017,31.924 L96.4017,39.165 L97.6567,39.165 L97.6567,36.231 L98.9247,36.231 Z M97.6567,32.881 L98.8197,32.881 C99.1837,32.881 99.4577,32.991 99.6397,33.21 C99.8217,33.43 99.9137,33.726 99.9137,34.099 C99.9137,34.476 99.8227,34.766 99.6427,34.969 C99.4627,35.172 99.1877,35.274 98.8197,35.274 L97.6567,35.274 L97.6567,32.881 Z M104.2637,31.924 L103.0077,31.924 L103.0077,39.165 L104.2637,39.165 L104.2637,31.924 Z M107.7257,31.924 L106.1407,31.924 L106.1407,39.165 L107.3967,39.165 L107.3967,34.385 L107.4337,34.379 L108.9937,39.165 L109.8457,39.165 L111.3997,34.41 L111.4367,34.416 L111.4367,39.165 L112.6997,39.165 L112.6997,31.924 L111.1197,31.924 L109.4357,37.617 L109.3977,37.617 L107.7257,31.924 Z M115.8557,31.924 L114.5997,31.924 L114.5997,39.165 L115.8557,39.165 L115.8557,31.924 Z M123.0667,31.924 L121.8047,31.924 L121.8047,36.921 L121.7667,36.935 L118.9897,31.924 L117.7327,31.924 L117.7327,39.165 L118.9897,39.165 L118.9897,34.161 L119.0257,34.149 L121.8047,39.165 L123.0667,39.165 L123.0667,31.924 Z M126.4917,31.924 L125.2347,31.924 L125.2347,39.165 L126.4917,39.165 L126.4917,31.924 Z M131.5497,38.022 C131.3387,38.216 131.0257,38.313 130.6117,38.313 C130.2257,38.313 129.9107,38.213 129.6637,38.011 C129.4167,37.81 129.2937,37.48 129.2937,37.024 L128.0877,37.024 L128.0687,37.061 C128.0487,37.805 128.2747,38.358 128.7467,38.724 C129.2187,39.088 129.8407,39.271 130.6117,39.271 C131.3777,39.271 131.9897,39.092 132.4417,38.734 C132.8957,38.376 133.1227,37.885 133.1227,37.261 C133.1227,36.654 132.9427,36.19 132.5817,35.869 C132.2217,35.549 131.6617,35.278 130.9037,35.059 C130.3397,34.886 129.9677,34.712 129.7877,34.538 C129.6077,34.364 129.5177,34.123 129.5177,33.815 C129.5177,33.516 129.6097,33.268 129.7937,33.074 C129.9787,32.879 130.2617,32.781 130.6427,32.781 C131.0197,32.781 131.3047,32.898 131.4977,33.131 C131.6897,33.364 131.7867,33.672 131.7867,34.056 L132.9927,34.056 L133.0047,34.019 C133.0207,33.331 132.8187,32.793 132.3987,32.405 C131.9777,32.018 131.3927,31.824 130.6427,31.824 C129.9127,31.824 129.3337,32.008 128.9057,32.377 C128.4767,32.745 128.2617,33.229 128.2617,33.83 C128.2617,34.446 128.4407,34.91 128.7997,35.22 C129.1587,35.531 129.7307,35.796 130.5187,36.016 C131.0327,36.186 131.3857,36.361 131.5777,36.545 C131.7707,36.729 131.8677,36.969 131.8677,37.267 C131.8677,37.576 131.7617,37.828 131.5497,38.022 L131.5497,38.022 Z M138.7047,31.924 L133.7447,31.924 L133.7447,32.881 L135.5777,32.881 L135.5777,39.165 L136.8337,39.165 L136.8337,32.881 L138.7047,32.881 L138.7047,31.924 Z M143.8327,34.92 L141.1657,34.92 L141.1657,32.881 L144.2867,32.881 L144.2867,31.924 L139.9107,31.924 L139.9107,39.165 L144.2867,39.165 L144.2867,38.208 L141.1657,38.208 L141.1657,35.877 L143.8327,35.877 L143.8327,34.92 Z M149.9237,34.92 L147.2577,34.92 L147.2577,32.881 L150.3777,32.881 L150.3777,31.924 L146.0017,31.924 L146.0017,39.165 L150.3777,39.165 L150.3777,38.208 L147.2577,38.208 L147.2577,35.877 L149.9237,35.877 L149.9237,34.92 Z M154.6177,36.231 C154.9487,36.231 155.2027,36.337 155.3807,36.548 C155.5597,36.759 155.6487,37.057 155.6487,37.437 L155.6487,38.09 C155.6487,38.306 155.6537,38.518 155.6637,38.725 C155.6747,38.932 155.7017,39.078 155.7427,39.165 L157.0407,39.165 L157.0407,39.06 C156.9867,38.973 156.9517,38.836 156.9317,38.649 C156.9137,38.463 156.9037,38.278 156.9037,38.097 L156.9037,37.432 C156.9037,36.996 156.8167,36.63 156.6427,36.334 C156.4687,36.037 156.1867,35.829 155.7977,35.709 C156.1457,35.547 156.4107,35.326 156.5937,35.044 C156.7757,34.762 156.8677,34.429 156.8677,34.043 C156.8677,33.376 156.6597,32.856 156.2427,32.483 C155.8267,32.11 155.2487,31.924 154.5107,31.924 L152.0927,31.924 L152.0927,39.165 L153.3487,39.165 L153.3487,36.231 L154.6177,36.231 Z M153.3487,32.881 L154.5107,32.881 C154.8757,32.881 155.1487,32.991 155.3317,33.21 C155.5137,33.43 155.6047,33.726 155.6047,34.099 C155.6047,34.476 155.5147,34.766 155.3347,34.969 C155.1557,35.172 154.8797,35.274 154.5107,35.274 L153.3487,35.274 L153.3487,32.881 Z M160.2107,31.924 L158.9547,31.924 L158.9547,39.165 L160.2107,39.165 L160.2107,31.924 Z M166.1087,31.924 L166.1087,36.663 C166.1087,37.185 165.9817,37.59 165.7267,37.879 C165.4717,38.169 165.1247,38.313 164.6857,38.313 C164.2507,38.313 163.9057,38.169 163.6477,37.879 C163.3907,37.59 163.2617,37.185 163.2617,36.663 L163.2617,31.924 L162.0067,31.924 L162.0067,36.672 C162.0067,37.489 162.2527,38.126 162.7457,38.584 C163.2407,39.042 163.8857,39.271 164.6857,39.271 C165.4857,39.271 166.1317,39.042 166.6247,38.584 C167.1187,38.126 167.3657,37.489 167.3657,36.672 L167.3657,31.924 L166.1087,31.924 Z M170.7517,31.924 L169.1667,31.924 L169.1667,39.165 L170.4227,39.165 L170.4227,34.385 L170.4597,34.379 L172.0197,39.165 L172.8717,39.165 L174.4257,34.41 L174.4627,34.416 L174.4627,39.165 L175.7247,39.165 L175.7247,31.924 L174.1457,31.924 L172.4617,37.617 L172.4237,37.617 L170.7517,31.924 Z" id="Fill-3" sketch:type="MSShapeGroup"></path>
            </g>
        </g>
    </g>
</svg>